<svg id="World_Wide_Web-Computer-Web_Development-Domain-Internet" data-name="World Wide Web-Computer-Web Development-Domain-Internet" xmlns="http://www.w3.org/2000/svg" width="71.169" height="87.146" viewBox="0 0 71.169 87.146">
  <path id="Path_4293" data-name="Path 4293" d="M77.743,79.047l-8.715-8.715A1.452,1.452,0,0,0,68,69.907H24.429V67a4.357,4.357,0,0,0-4.357-4.357H11.357a1.452,1.452,0,1,1,0-2.9h8.715a4.357,4.357,0,0,0,4.357-4.357v-2.9H34.6v5.81h-5.81a1.452,1.452,0,0,0-1.452,1.452v5.81A1.452,1.452,0,0,0,28.786,67H57.835a1.452,1.452,0,0,0,1.452-1.452V59.74a1.452,1.452,0,0,0-1.452-1.452h-5.81v-5.81H72.359a4.357,4.357,0,0,0,4.357-4.357V10.357A4.357,4.357,0,0,0,72.359,6H60.74V8.9H72.359a1.452,1.452,0,0,1,1.452,1.452v30.5h-61v-30.5A1.452,1.452,0,0,1,14.262,8.9H25.882V6H14.262A4.357,4.357,0,0,0,9.9,10.357V48.12a4.357,4.357,0,0,0,4.357,4.357h7.262v2.9a1.452,1.452,0,0,1-1.452,1.452H11.357a4.357,4.357,0,1,0,0,8.715h8.715A1.452,1.452,0,0,1,21.524,67v2.9h-2.9a1.452,1.452,0,0,0-1.027.425L8.878,79.047a1.452,1.452,0,0,0-.426,1.027v4.357a2.9,2.9,0,0,0,2.9,2.9H75.264a2.9,2.9,0,0,0,2.9-2.9V80.074a1.452,1.452,0,0,0-.425-1.027ZM56.382,64.1H30.239v-2.9H56.382Zm-7.262-5.81H37.5v-5.81H49.12ZM12.81,48.12V43.763h61V48.12a1.452,1.452,0,0,1-1.452,1.452h-58.1A1.452,1.452,0,0,1,12.81,48.12Zm6.411,24.691H67.4l5.81,5.81h-59.8ZM11.357,84.431v-2.9H75.264v2.9Z" transform="translate(-7 -0.19)" fill="#00b1ff"/>
  <path id="Path_4294" data-name="Path 4294" d="M16,53h2.9v2.9H16Z" transform="translate(-2.928 21.074)" fill="#00b1ff"/>
  <path id="Path_4295" data-name="Path 4295" d="M20,53h2.9v2.9H20Z" transform="translate(-1.118 21.074)" fill="#00b1ff"/>
  <path id="Path_4296" data-name="Path 4296" d="M42,53h2.9v2.9H42Z" transform="translate(8.835 21.074)" fill="#00b1ff"/>
  <path id="Path_4297" data-name="Path 4297" d="M24,53H47.239v2.9H24Z" transform="translate(0.691 21.074)" fill="#00b1ff"/>
  <path id="Path_4298" data-name="Path 4298" d="M46,53h2.9v2.9H46Z" transform="translate(10.645 21.074)" fill="#00b1ff"/>
  <path id="Path_4299" data-name="Path 4299" d="M47,33h2.9v2.9H47Z" transform="translate(11.097 12.025)" fill="#00b1ff"/>
  <path id="Path_4300" data-name="Path 4300" d="M37.429,36.858A17.429,17.429,0,1,0,20,19.429,17.429,17.429,0,0,0,37.429,36.858ZM22.979,20.882h5.77a32.88,32.88,0,0,0,.809,6.235,17.155,17.155,0,0,0-2.991,1.922,14.446,14.446,0,0,1-3.589-8.157Zm8.731,11.894a14.524,14.524,0,0,1-2.972-1.743A14.489,14.489,0,0,1,30.4,29.95a17.361,17.361,0,0,0,1.309,2.825ZM33.1,28.8a14.845,14.845,0,0,1,8.659,0c-1.145,3.192-2.789,5.155-4.33,5.155S34.244,31.991,33.1,28.8Zm11.358,1.162a14.558,14.558,0,0,1,1.663,1.082,14.524,14.524,0,0,1-2.972,1.743,17.3,17.3,0,0,0,1.309-2.829ZM43.15,6.087A14.524,14.524,0,0,1,46.122,7.83a14.489,14.489,0,0,1-1.663,1.082,17.361,17.361,0,0,0-1.31-2.829Zm-1.39,3.977a14.845,14.845,0,0,1-8.659,0c1.143-3.2,2.787-5.159,4.328-5.159s3.185,1.962,4.33,5.155ZM30.4,8.9A14.557,14.557,0,0,1,28.739,7.82a14.524,14.524,0,0,1,2.972-1.743A17.3,17.3,0,0,0,30.4,8.9Zm1.91,3.959a17.5,17.5,0,0,0,5.117.758,17.462,17.462,0,0,0,5.118-.758,29.856,29.856,0,0,1,.658,5.115H31.653a29.857,29.857,0,0,1,.658-5.115Zm10.893,8.02A29.856,29.856,0,0,1,42.547,26a17.766,17.766,0,0,0-10.237,0,29.855,29.855,0,0,1-.658-5.117Zm5.083,8.157A17.271,17.271,0,0,0,45.3,27.117a32.88,32.88,0,0,0,.81-6.235h5.77a14.446,14.446,0,0,1-3.589,8.157Zm3.59-11.062h-5.77a32.88,32.88,0,0,0-.809-6.235A17.155,17.155,0,0,0,48.29,9.82,14.446,14.446,0,0,1,51.879,17.977ZM26.568,9.82a17.271,17.271,0,0,0,2.991,1.922,32.88,32.88,0,0,0-.809,6.235h-5.77A14.446,14.446,0,0,1,26.568,9.82Z" transform="translate(-1.118 -2)" fill="#00b1ff"/>
</svg>
