<svg id="Application" xmlns="http://www.w3.org/2000/svg" width="82.887" height="82.887" viewBox="0 0 82.887 82.887">
  <path id="Path_4327" data-name="Path 4327" d="M25,44H44.34v2.763H25Z" transform="translate(6.773 14.021)" fill="#fff"/>
  <path id="Path_4328" data-name="Path 4328" d="M21,44h2.763v2.763H21Z" transform="translate(5.248 14.021)" fill="#fff"/>
  <path id="Path_4329" data-name="Path 4329" d="M83.506,7.526H64.165V6.144A4.157,4.157,0,0,0,60.021,2H26.866a4.157,4.157,0,0,0-4.144,4.144V11.67H3.381A1.381,1.381,0,0,0,2,13.052V29.629A1.381,1.381,0,0,0,3.381,31.01h19.34v2.763a6.907,6.907,0,0,0-6.907,6.907v5.65l2.763,28.941v8.233a1.381,1.381,0,0,0,1.381,1.381H50.351a1.381,1.381,0,0,0,1.381-1.381V75.659l5.139-7.349h3.15a4.157,4.157,0,0,0,4.144-4.144V62.784h1.381a5.505,5.505,0,0,0,3.619-9.67,5.458,5.458,0,0,0,0-8.289,5.458,5.458,0,0,0,0-8.289,5.505,5.505,0,0,0-3.619-9.67H64.165V24.1h19.34a1.381,1.381,0,0,0,1.381-1.381V8.907A1.381,1.381,0,0,0,83.506,7.526Zm-29.4-2.763L53.68,6.476a1.381,1.381,0,0,1-1.34,1.05H34.547a1.381,1.381,0,0,1-1.34-1.05l-.428-1.713ZM4.763,28.248V14.433H29.629V28.248ZM48.969,82.124H21.34V76.6H48.969Zm.663-8.289H21.216L18.577,46.206V40.681a4.157,4.157,0,0,1,4.144-4.144h9.67a4.144,4.144,0,0,1,0,8.289H24.1a1.381,1.381,0,0,0-1.381,1.381V64.165a4.157,4.157,0,0,0,4.144,4.144H53.5Zm11.77-9.67a1.381,1.381,0,0,1-1.381,1.381H26.866a1.381,1.381,0,0,1-1.381-1.381V47.588h6.907a6.907,6.907,0,0,0,0-13.815H25.485V31.01H31.01a1.381,1.381,0,0,0,1.381-1.381V13.052A1.381,1.381,0,0,0,31.01,11.67H25.485V6.144a1.381,1.381,0,0,1,1.381-1.381h3.067l.594,2.39a4.144,4.144,0,0,0,4.02,3.136H52.34a4.144,4.144,0,0,0,4.02-3.136l.594-2.39h3.067A1.381,1.381,0,0,1,61.4,6.144V7.526H58.639a1.381,1.381,0,0,0-1.381,1.381V22.722A1.381,1.381,0,0,0,58.639,24.1H61.4v2.763H60.021a5.505,5.505,0,0,0-3.619,9.67,5.458,5.458,0,0,0,0,8.289,5.458,5.458,0,0,0,0,8.289,5.505,5.505,0,0,0,3.619,9.67H61.4Zm4.144-4.144H60.021a2.763,2.763,0,1,1,0-5.526h5.526a2.763,2.763,0,0,1,0,5.526Zm0-8.289H60.021a2.763,2.763,0,1,1,0-5.526h5.526a2.763,2.763,0,0,1,0,5.526Zm0-8.289H60.021a2.763,2.763,0,1,1,0-5.526h5.526a2.763,2.763,0,0,1,0,5.526Zm0-13.815a2.763,2.763,0,0,1,0,5.526H60.021a2.763,2.763,0,1,1,0-5.526ZM82.124,21.34h-22.1V10.289h22.1Z" transform="translate(-2 -2)" fill="#fff"/>
  <path id="Path_4330" data-name="Path 4330" d="M6,13H8.763v2.763H6Z" transform="translate(-0.474 2.196)" fill="#fff"/>
  <path id="Path_4331" data-name="Path 4331" d="M10,13H23.815v2.763H10Z" transform="translate(1.052 2.196)" fill="#fff"/>
  <path id="Path_4332" data-name="Path 4332" d="M6,17H25.34v2.763H6Z" transform="translate(-0.474 3.722)" fill="#fff"/>
  <path id="Path_4333" data-name="Path 4333" d="M46,11h5.526v2.763H46Z" transform="translate(14.784 1.433)" fill="#fff"/>
  <path id="Path_4334" data-name="Path 4334" d="M52,11h8.289v2.763H52Z" transform="translate(17.073 1.433)" fill="#fff"/>
</svg>
