<svg id="Слой_x0020_1" xmlns="http://www.w3.org/2000/svg" width="92.686" height="77.923" viewBox="0 0 92.686 77.923">
  <g id="_2734830894736" transform="translate(0 0)">
    <path id="Path_4325" data-name="Path 4325" d="M53.747,7.848q-.158-.14-.307-.3a4.613,4.613,0,0,1-1.146-4.021A4.288,4.288,0,0,1,55.643.192a4.412,4.412,0,0,1,5.019,1.93A4.53,4.53,0,0,1,59.725,7.9l.034.02a1.746,1.746,0,0,1,1.111-.377l4.577,0a1.753,1.753,0,0,1,1.44.719L69,11.069,71.018,8.3a1.754,1.754,0,0,1,1.449-.741l4.565-.021a1.8,1.8,0,0,1,1.8,2.047c-.176,1.3-2.252,3.749-3.087,4.8-.571.72-1.148,1.437-1.71,2.165-.127.165-.3.38-.463.6.166.228.341.452.477.635.577.775,1.169,1.541,1.759,2.307.673.874,1.351,1.747,2.006,2.635a5.683,5.683,0,0,1,1.269,2.317,1.8,1.8,0,0,1-1.794,1.975l-4.645.007a1.751,1.751,0,0,1-1.414-.68c-.627-.786-1.219-1.708-1.815-2.53q-.222-.306-.447-.611c-.155.219-.31.437-.471.65a27.58,27.58,0,0,1-1.932,2.531,1.744,1.744,0,0,1-1.294.563L60.7,26.99a1.747,1.747,0,0,1-1.06-.329,1.814,1.814,0,0,1-.778.177l-4.217.018a1.8,1.8,0,0,1-1.812-1.8l-.021-10.345a1.767,1.767,0,0,1-1.793.335,7.59,7.59,0,0,0-1.66-.455,2.985,2.985,0,0,0-.414.249c-.129.084-.257.167-.385.249l-.023,10.116a1.807,1.807,0,0,1-1.793,1.8l-4.459.028a1.78,1.78,0,0,1-1.491-.766A12.392,12.392,0,0,1,35.648,27.3,6.658,6.658,0,0,1,30.205,24.8c-1.41-1.948-1.259-5.014-1.155-7.31.04-.875.113-1.88.1-2.841l-1.2-.018-.077,0-.026,10.43a1.8,1.8,0,0,1-1.832,1.8L21.77,26.8A1.807,1.807,0,0,1,19.993,25l-.006-3.113a8.291,8.291,0,0,1-.676,1.212,9.445,9.445,0,0,1-8.027,3.94c-1.235.008-2.473.057-3.708.077a31.184,31.184,0,0,1-4.237-.119A1.8,1.8,0,0,1,1.756,25.2l.008-22A1.782,1.782,0,0,1,3.049,1.474a17.519,17.519,0,0,1,3.893-.2c1.058.009,2.121.046,3.178.045,3.621,0,7.421,1.276,8.716,4.99a7.3,7.3,0,0,1-.889,6.445,6.906,6.906,0,0,1,2.028,2.472L19.963,9.46A1.744,1.744,0,0,1,20.5,8.173a1.84,1.84,0,0,1,.431-.32q-.1-.085-.192-.177A4.58,4.58,0,0,1,19.4,3.867,4.325,4.325,0,0,1,22.755.208,4.377,4.377,0,0,1,27.62,1.794,4.6,4.6,0,0,1,26.9,7.909q.071.036.138.078a3.008,3.008,0,0,1,2.029-.553l.008-1.745a1.755,1.755,0,0,1,.753-1.458A19.609,19.609,0,0,1,35.43,2.6a1.8,1.8,0,0,1,1.822,1.8l.013,3.145,2.924.011a1.744,1.744,0,0,1,1,.3,1.8,1.8,0,0,1,1.059-.34l3.713-.007a1.76,1.76,0,0,1,1.365.616,6.625,6.625,0,0,1,.942-.507,6.715,6.715,0,0,1,5.463.237l.011-.006ZM3.3,38.421c0,.616,1.756,5.461,2.082,6.392A30.4,30.4,0,0,0,8.84,43.5c3.258-1.138,8.373-2.321,11.332-.372,1.958,1.29,2.628,3.926,1.118,6.454a17.094,17.094,0,0,1-4.736,4.44C11.182,57.892,5.773,62.03,3.5,68.6c-.627,1.814-1.746,5.728-1.669,7.547L31.511,76.1,31.5,68.929H13.075c-.351-1.662,3.42-5.358,4.276-6.09,5.907-5.053,13.762-8.73,13.572-17.415-.226-10.312-11.995-11.551-20-9.646-1.819.433-6.3,1.733-7.632,2.644Zm45.215,21.2-8.539.085c.317-1.063,7.475-9.639,8.661-11.665.332.356.112,1.885.082,2.735-.035,1-.113,1.88-.128,2.926a52.5,52.5,0,0,1-.076,5.918Zm2.228-24.456c-3.589,4.447-7.6,9.666-11.434,14.486-2.9,3.637-5.852,7.61-8.6,10.892-.633.756-.407,1.5-.407,2.709,0,.944-.07,2.193.027,3.147l18.256.042.024,9.706,8.222-.059.029-9.681,6-.021-.014-6.74L56.9,59.62c-.372-1.517.289-23.916-.181-24.382-.542-.29-5.037-.167-5.983-.075ZM8.09,6.965c6.474-1.279,6.506,6.314.006,5.079ZM3.561,25.2c1.916.238,5.649.042,7.711.028,8-.052,9.764-8.584,5.091-11.373-.443-.265-.953-.374-1.4-.647.266-.414.416-.374.807-.714,2.784-2.415,2.734-9.379-5.647-9.374a60.3,60.3,0,0,0-6.552.08l-.008,22ZM65.832,46.569c-1-6.381,4.042-12.2,9.365-12.8a11.329,11.329,0,0,1,8.771,2.363c8.143,6.88,3.466,18.768-5.327,19.816A11.248,11.248,0,0,1,65.832,46.57Zm-2.53.255c2.273,12.467,17.056,15.7,24.387,6.653,2.065-2.547,3.817-7.29,3.029-10.514a15.407,15.407,0,0,0-5.082-8.754,13.846,13.846,0,0,0-10.449-3.027,14.174,14.174,0,0,0-8.867,4.991c-1.791,2.29-3.8,6.359-3.017,10.651ZM65.446,9.349l-4.577,0c.143.748,5.538,7.469,5.568,7.812.05.571-5.635,7.171-5.752,8.029l4.568-.037a26.114,26.114,0,0,0,1.8-2.376,14.848,14.848,0,0,1,1.892-2.366c.6.329,3.294,4.318,3.693,4.818l4.645-.007c-.054-.569-5.86-7.587-5.808-8.062.083-.764,5.411-6.677,5.565-7.811l-4.565.021L69.9,12.893c-.149.207-.26.376-.422.6-.265.358-.185.33-.535.508l-3.5-4.647ZM35.507,12.865c.659-.047,1.328-.021,1.989-.019,1.149,0,1.523.179,1.8-.266a28.621,28.621,0,0,0,.883-3.226l-4.715-.018L35.447,4.4a23.293,23.293,0,0,0-4.565,1.3l-.016,3.577c-1.174.117-2.689-.363-2.879.4-.008.034-.016.068-.022.105l.017,3.049,2.849.043c.494,3.2-.824,8.579.837,10.873,2.155,2.978,7.943,1.452,8.88.543a29.486,29.486,0,0,0-1.127-2.954c-1.228.013-3.951,2.151-3.961-1.757a62.666,62.666,0,0,1,.048-6.712Zm16.122.483A15.53,15.53,0,0,0,53.2,9.591c-4.144-1.888-5.464.909-6.667,1.221-.261-.442-.321-1.033-.568-1.5l-3.713.007c-.185.773-.162,15.308.019,15.911l4.459-.028.026-11.14c2.127-1.144,1.8-1.815,4.871-.713Zm2.977-3.908.031,15.613,4.217-.018c.153-1.084.129-15.094-.028-15.565l-4.22-.03Zm-32.839.017.03,15.535,4.251.064.038-15.539Zm1.442-7.5c-3.5.912-2.161,5.935,1.5,5.081,3.137-.731,2.358-6.086-1.5-5.081Zm32.849-.006c-3.483.825-2.208,5.987,1.472,5.08a2.645,2.645,0,1,0-1.472-5.08Zm-44,19.236a30.737,30.737,0,0,1-3.825.07l.011-5.247a15.313,15.313,0,0,1,4.316.2,2.385,2.385,0,0,1,1.721,2.711,2.39,2.39,0,0,1-2.223,2.268Zm.072-1.8a.989.989,0,0,0,.137-1.395c-.693-.1-1.464-.212-2.222-.25l0,1.746c.643-.031,1.289-.089,1.921-.1q.072,0,.146,0h.021Zm48.619,2.452c.451-.594.912-1.182,1.37-1.768.586-.75,1.175-1.5,1.749-2.257.126-.167.291-.377.451-.592-.142-.188-.284-.371-.409-.538-.58-.776-1.167-1.546-1.75-2.32-.295-.391-.859-1.11-1.425-1.886.021,1.6.029,3.2.031,4.8,0,1.518,0,3.037-.016,4.556ZM40.329,14.119a2.3,2.3,0,0,1-.356.248,4.527,4.527,0,0,1-2.48.283l-.3,0c-.009.578,0,1.16.012,1.687.017,1.078.06,2.158.063,3.236,0,.1,0,.287.021.466L37.393,20a7.079,7.079,0,0,1,2.008-.476,1.808,1.808,0,0,1,.93.24q-.008-1.25-.009-2.5,0-1.575.006-3.15ZM9.9,8.644l0,1.709C11.567,10.156,11.562,8.827,9.9,8.644ZM28.671,67.124a1.822,1.822,0,0,1-.143-.547,33.245,33.245,0,0,1-.035-3.327c0-1.508-.252-2.578.828-3.868,2.957-3.532,5.7-7.254,8.572-10.858,3.834-4.816,7.576-9.706,11.442-14.5a1.744,1.744,0,0,1,1.23-.663c1-.1,2.088-.1,3.089-.112s3.06-.067,3.919.393a1.714,1.714,0,0,1,.421.311,3.359,3.359,0,0,1,.661,2.376c.038.949.043,1.9.047,2.853.01,2.765-.023,5.533-.052,8.3-.027,2.565-.058,5.132-.061,7.7,0,.88,0,1.761.017,2.64l4.241.016a1.808,1.808,0,0,1,1.8,1.8l.014,6.74a1.808,1.808,0,0,1-1.8,1.808l-4.206.015-.023,7.888a1.807,1.807,0,0,1-1.792,1.8l-8.222.059a1.8,1.8,0,0,1-1.818-1.8l-.019-7.91-13.628-.031a1.792,1.792,0,0,1,.151.719l.013,7.173a1.808,1.808,0,0,1-1.8,1.808L1.837,77.95A1.8,1.8,0,0,1,.032,76.221c-.093-2.192,1.031-6.087,1.766-8.213C4.206,61.04,9.744,56.7,15.5,52.56a15.824,15.824,0,0,0,4.24-3.9c.807-1.352.858-3.086-.562-4.022-2.389-1.574-7.252-.3-9.744.568a20.753,20.753,0,0,1-3.866,1.4,1.788,1.788,0,0,1-1.9-1.2c-.366-1.044-.74-2.085-1.1-3.132a18.575,18.575,0,0,1-1.084-3.846,1.757,1.757,0,0,1,.787-1.5c1.7-1.161,6.129-2.408,8.231-2.908a29.466,29.466,0,0,1,6.784-.8c7.792,0,15.24,3.365,15.433,12.158a13.957,13.957,0,0,1-2.072,7.744c-2.87,4.687-8.038,7.581-12.131,11.082A25.617,25.617,0,0,0,15.8,67.123H28.671ZM46.828,57.83c0-.416,0-.833,0-1.248-.013-.965-.055-1.944-.041-2.907,0-.035,0-.07,0-.1q-.49.628-.981,1.255c-.79,1.01-1.582,2.02-2.361,3.039l3.386-.034Zm14.7-10.682A15.672,15.672,0,0,1,64.9,35.061,15.994,15.994,0,0,1,74.9,29.4a15.611,15.611,0,0,1,11.888,3.424,17.231,17.231,0,0,1,5.679,9.711c.931,3.81-.967,9.1-3.38,12.079a15.585,15.585,0,0,1-27.565-7.465Zm6.089-.857c.827,5.287,5.568,8.486,10.813,7.861A8.7,8.7,0,0,0,83.859,51.3a9.739,9.739,0,0,0,2.518-6.732A9.5,9.5,0,0,0,82.8,37.506a9.659,9.659,0,0,0-7.4-1.949,9,9,0,0,0-5.829,3.548,9.4,9.4,0,0,0-1.957,7.185Z" transform="translate(-0.026 -0.027)" fill="#fff" fill-rule="evenodd"/>
    <path id="Path_4326" data-name="Path 4326" d="M5950.714,2946.175l2.776,0a1.807,1.807,0,0,1,1.8,1.773l.045,2.617a1.806,1.806,0,0,1-1.8,1.836l-7.42.009a1.8,1.8,0,0,1-1.807-1.81l.021-7.676a1.8,1.8,0,0,1,1.858-1.8l2.75.081a1.805,1.805,0,0,1,1.751,1.789Zm2.774,1.808-4.564,0-.04-4.964-2.749-.081-.021,7.676,7.421-.009-.046-2.617Z" transform="translate(-5870.628 -2904.672)" fill="#fff" fill-rule="evenodd"/>
  </g>
</svg>
