<svg id="blog" xmlns="http://www.w3.org/2000/svg" width="90.003" height="84.003" viewBox="0 0 90.003 84.003">
  <g id="Group_23" data-name="Group 23" transform="translate(0 0)">
    <g id="Group_22" data-name="Group 22" transform="translate(0 0)">
      <path id="Path_4314" data-name="Path 4314" d="M88.5,88H87V34a6,6,0,0,0-6-6H67.5V17.5a1.5,1.5,0,0,0-1.776-1.475l-9,1.688-1.5.282L41.862,20.5H33a3,3,0,0,0-3,3A7.5,7.5,0,0,0,23.137,28H9a6,6,0,0,0-6,6V88H1.5A1.5,1.5,0,0,0,0,89.5V94a6,6,0,0,0,6,6H84a6,6,0,0,0,6-6V89.5A1.5,1.5,0,0,0,88.5,88Zm-45-64.757,21-3.938V42.7l-21-3.945Zm0,18.556,3,.563V44.5h-3ZM33,23.5h7.5v15H33Zm3,27v-9h4.5v9Zm4.5,3v2.25a2.25,2.25,0,0,1-4.5,0V53.5ZM30,26.5v9a4.5,4.5,0,1,1,0-9ZM6,34a3,3,0,0,1,3-3H22.5A7.509,7.509,0,0,0,30,38.5a3,3,0,0,0,3,3V55.75a5.25,5.25,0,1,0,10.5,0V47.5H48A1.5,1.5,0,0,0,49.5,46V42.932l16.224,3.042A1.549,1.549,0,0,0,66,46a1.5,1.5,0,0,0,1.5-1.5V31H81a3,3,0,0,1,3,3V88H58.5a1.5,1.5,0,0,0-1.061.438L54.881,91H35.122l-2.561-2.562A1.5,1.5,0,0,0,31.5,88H6ZM87,94a3,3,0,0,1-3,3H6a3,3,0,0,1-3-3V91H30.88l2.561,2.561A1.5,1.5,0,0,0,34.5,94h21a1.5,1.5,0,0,0,1.061-.44L59.123,91H87Z" transform="translate(0 -15.999)" fill="#00b1ff"/>
    </g>
  </g>
  <g id="Group_25" data-name="Group 25" transform="translate(10.5 19.501)">
    <g id="Group_24" data-name="Group 24" transform="translate(0 0)">
      <path id="Path_4315" data-name="Path 4315" d="M123.5,120h-6v3H122v40.5H59V123h7.5v-3h-9a1.5,1.5,0,0,0-1.5,1.5V165a1.5,1.5,0,0,0,1.5,1.5h66A1.5,1.5,0,0,0,125,165V121.5A1.5,1.5,0,0,0,123.5,120Z" transform="translate(-56 -120)" fill="#00b1ff"/>
    </g>
  </g>
  <g id="Group_27" data-name="Group 27" transform="translate(43.573 70.234)">
    <g id="Group_26" data-name="Group 26" transform="translate(0 0)">
      <rect id="Rectangle_44" data-name="Rectangle 44" width="3" height="2" transform="translate(-0.005 -0.326)" fill="#00b1ff"/>
    </g>
  </g>
  <g id="Group_29" data-name="Group 29" transform="translate(20.879 49.356)">
    <g id="Group_28" data-name="Group 28" transform="translate(0 0)">
      <rect id="Rectangle_45" data-name="Rectangle 45" width="4" height="4" transform="translate(-0.311 -0.447)" fill="#00b1ff"/>
    </g>
  </g>
  <g id="Group_31" data-name="Group 31" transform="translate(27.233 49.356)">
    <g id="Group_30" data-name="Group 30" transform="translate(0 0)">
      <rect id="Rectangle_46" data-name="Rectangle 46" width="45" height="4" transform="translate(0.335 -0.447)" fill="#00b1ff"/>
    </g>
  </g>
  <g id="Group_33" data-name="Group 33" transform="translate(18.155 54.802)">
    <g id="Group_32" data-name="Group 32" transform="translate(0 0)">
      <rect id="Rectangle_47" data-name="Rectangle 47" width="49" height="3" transform="translate(0.413 0.107)" fill="#00b1ff"/>
    </g>
  </g>
</svg>
