<svg id="Слой_x0020_1" xmlns="http://www.w3.org/2000/svg" width="74.552" height="80.488" viewBox="0 0 74.552 80.488">
  <g id="_2734780298368" transform="translate(0 0)">
    <path id="Path_4369" data-name="Path 4369" d="M3.851,61.622V27.751c0-3.071,2.577-5.412,5.936-5.412h55a6.343,6.343,0,0,1,4.153,1.434,5.353,5.353,0,0,1,1.783,3.8V61.8a5.311,5.311,0,0,1-3.68,4.875c-2.129.676-5.515.363-8.193.363H28.992c-2.405-.012-1.8-.031-3.1,1.266l-6.46,6.46c-.588.588-1.491,1.877-2.488,1.877a1.856,1.856,0,0,1-1.921-1.746V67.034c-3.981,0-6.812.546-9.361-1.464a5.658,5.658,0,0,1-1.813-3.948Zm29.856-53.6c0-3.031,1.159-4.19,4.19-4.19,2.3,0,4.445,3.829,2.042,6.232-2.421,2.421-6.232.181-6.232-2.042ZM29.866,6.8c0,2.157.261,3.917,1.787,5.547.795.849,2.39,2.193,3.8,2.31V18.5H10.136A9.715,9.715,0,0,0,1.9,22.312,9.493,9.493,0,0,0,.01,27.751V61.622a9.739,9.739,0,0,0,.9,3.811c1.952,4.1,5.467,5.442,10.271,5.442v4.016a5.752,5.752,0,0,0,5.762,5.587c2.638,0,4.412-2.229,5.805-3.623,1.643-1.643,3.161-3.156,4.8-4.8,1.463-1.467.8-1.18,3.536-1.179l33.352,0c5.784.024,10.122-4.024,10.122-8.908V27.4a9.385,9.385,0,0,0-3.1-6.5,10.158,10.158,0,0,0-7.2-2.4H39.294V14.656a7.488,7.488,0,0,0,4.97-10.033C43.34,2.282,40.681-.01,37.9-.01H36.675c-3.326,0-6.809,3.483-6.809,6.809Z" transform="translate(-0.01 0.01)" fill="#fff" fill-rule="evenodd"/>
    <path id="Path_4370" data-name="Path 4370" d="M386.17,1540.678c0,5.607.786,7.7,3.941,11.773a12.576,12.576,0,0,0,6.26,3.866c6.111,1.571,5.163-2.886,3.521-3.346-.876-.245-1.974-.151-2.884-.434a9.327,9.327,0,0,1-2.357-1.135c-5.06-3.465-5.95-10.736-2.952-16.194a10.816,10.816,0,0,1,1.1-1.516,8.946,8.946,0,0,1,7.16-3.141h32.3a9.362,9.362,0,0,1,4.25.988c4.9,2.605,6.753,9.548,4.507,15.1a9.607,9.607,0,0,1-6.155,5.892c-1.941.6-4-.215-4,2.461a1.916,1.916,0,0,0,1.937,1.731,15.44,15.44,0,0,0,3.268-.542,12.914,12.914,0,0,0,4.88-2.8,15.573,15.573,0,0,0,4.256-7.093c2.5-8.507-2.484-19.579-13.294-19.579H399.963c-4.2,0-6.117,1.16-8.8,3.243a3.217,3.217,0,0,0-.9.845,15.3,15.3,0,0,0-2.752,4.232,15.539,15.539,0,0,0-1.336,5.648Z" transform="translate(-378.663 -1497.029)" fill="#fff" fill-rule="evenodd"/>
    <path id="Path_4371" data-name="Path 4371" d="M1436.92,2967.491a3.928,3.928,0,0,0,4.19,3.841h10.3c5.624,0,5.624-7.682,0-7.682h-10.3A3.928,3.928,0,0,0,1436.92,2967.491Z" transform="translate(-1408.985 -2906.034)" fill="#fff" fill-rule="evenodd"/>
    <path id="Path_4372" data-name="Path 4372" d="M862.13,2016.059a5.951,5.951,0,0,0,1.442,3.8,5.72,5.72,0,0,0,9.364-1.545,5.13,5.13,0,0,0,.048-4.375,4.294,4.294,0,0,0-1.116-1.677,5.657,5.657,0,0,0-8.214-.087,5.983,5.983,0,0,0-1.524,3.889Z" transform="translate(-845.369 -1971.363)" fill="#fff" fill-rule="evenodd"/>
    <path id="Path_4373" data-name="Path 4373" d="M2397.86,2016.928a5.6,5.6,0,1,0,11.174,0c0-2.876-2.422-5.238-5.936-5.238A5.514,5.514,0,0,0,2397.86,2016.928Z" transform="translate(-2351.244 -1972.581)" fill="#fff" fill-rule="evenodd"/>
  </g>
</svg>
