<svg id="construction_project_plan_building_architect_design_develop-62_icon-icons.com_60212" xmlns="http://www.w3.org/2000/svg" width="86.352" height="82.871" viewBox="0 0 86.352 82.871">
  <path id="Path_4355" data-name="Path 4355" d="M4.786,73.032H2A11.829,11.829,0,0,0,13.839,84.87H88.352V12.446H15.231V2H13.839A11.829,11.829,0,0,0,2,13.839V73.032H4.786a9.035,9.035,0,0,1,9.053-9.053h1.393V15.231H85.567V82.085H13.839A9.035,9.035,0,0,1,4.786,73.032Zm7.66-11.769a11.777,11.777,0,0,0-7.66,4.109V13.839a9.007,9.007,0,0,1,7.66-8.914Z" transform="translate(-2 -2)" fill="#fff"/>
  <path id="Path_4356" data-name="Path 4356" d="M99.357,29H91V76.006l4.178,8.357,4.178-8.357Zm-2.786,2.786v7.66H93.786v-7.66ZM95.178,78.1,93.786,75.31V42.231h2.786V75.31Z" transform="translate(-29.021 -10.197)" fill="#fff"/>
  <path id="Path_4357" data-name="Path 4357" d="M42,62.427v2.786h5.571L44.089,84.5l2.716.487,3.552-19.777h8.357L62.265,84.99l2.716-.487L61.5,65.212H67.07V62.427H61.011l-1.6-9.192a8.412,8.412,0,0,0,3.482-6.825,8.315,8.315,0,0,0-6.964-8.217V29H53.142v9.192a8.37,8.37,0,0,0-6.964,8.217,8.51,8.51,0,0,0,3.482,6.825l-1.6,9.192Zm9.889-11.142a5.571,5.571,0,1,1,5.293,0l-.905.487,1.95,10.655H50.844l1.88-10.655Z" transform="translate(-14.144 -10.197)" fill="#fff"/>
</svg>
