<svg id="Слой_x0020_1" xmlns="http://www.w3.org/2000/svg" width="94.408" height="85.565" viewBox="0 0 94.408 85.565">
  <g id="_2734833768944" transform="translate(0)">
    <g id="Group_34" data-name="Group 34" transform="translate(25.061 25.446)">
      <path id="Path_4390" data-name="Path 4390" d="M228.039,247.155l.829-3.184.008-.026c.4-1.388.705-2.8,1.056-4.2q.935-3.737,1.846-7.48.587-2.407,1.155-4.82c.132-.572.265-1.143.389-1.716.041-.191.1-.421.134-.63-.078-.152-.179-.318-.255-.448-.239-.414-.487-.824-.737-1.233-.693-1.135-1.4-2.262-2.114-3.387-1.106-1.749-2.225-3.49-3.342-5.231-.176-.275-.337-.56-.519-.829q-.544-.81-1.058-1.637c-2.376-3.8-4.888-7.53-7.375-11.26l-2.123-3.184c-.171-.255-.339-.511-.5-.753l-1.644-2.372c-.325-.452-1.381-2.209-1.861-2.408a6.346,6.346,0,0,0-1.044.025,8.753,8.753,0,0,0-.861,1.148c-.475.7-.959,1.4-1.43,2.1l-5.579,8.34c-.427.722-.913,1.4-1.379,2.1l-.7,1.054-3.449,5.277c-.508.833-1.053,1.656-1.585,2.477q-1.23,1.9-2.461,3.792c-.888,1.372-1.774,2.748-2.635,4.137-.31.5-.619,1-.913,1.511-.1.175-.259.433-.353.639a11.061,11.061,0,0,0,.2,1.11c.176.88.374,1.758.575,2.631.566,2.459,1.172,4.911,1.785,7.358.941,3.764,1.917,7.516,2.872,11.276.144.566.415,1.139.046,1.693-.409.615-1.181.54-1.822.534-.5,0-1-.012-1.494.016a3.432,3.432,0,0,0-1.983.562,1.108,1.108,0,0,0-.282.827,1.178,1.178,0,0,0,.856,1.248,3.262,3.262,0,0,0,.394.044c.3.024.59.04.885.053.938.044,1.879.067,2.818.087,2.781.058,5.564.074,8.347.074H221.7c1.527,0,3.059-.021,4.585-.042.99-.013,1.98-.029,2.97-.054.356-.009.713-.019,1.069-.034.161-.007.352-.009.512-.032.1-.013.194-.022.292-.029a4.654,4.654,0,0,0,1.775-.164,1.631,1.631,0,0,0,.624-1.008c.266-1.438-1.975-1.556-2.88-1.552a4.979,4.979,0,0,1-2.381-.29.952.952,0,0,1-.447-1.267,7.481,7.481,0,0,0,.224-.837Zm-17.056-10.81c1.158,0,2.3-.153,3.012,1.008a3.162,3.162,0,0,1-1.3,4.767,2.873,2.873,0,0,1-2.348.069,3.3,3.3,0,0,1-1.868-2.089,3.2,3.2,0,0,1,.606-2.989A2.2,2.2,0,0,1,210.984,236.345ZM197.877,247.9c-.046-.258-.127-.542-.183-.8-.747-3.481-1.593-6.947-2.461-10.4-.843-3.356-1.716-6.706-2.588-10.056a2.89,2.89,0,0,1-.115-1.211,2.822,2.822,0,0,1,.482-1.094c.286-.439.593-.867.881-1.307l7.587-11.577.005-.008c1.114-1.663,2.189-3.362,3.284-5.038.765-1.171,1.531-2.342,2.313-3.5.275-.407.552-.815.839-1.214a3.584,3.584,0,0,1,.634-.745.952.952,0,0,1,1.513.767v30.957a.936.936,0,0,1-.692.915,4.1,4.1,0,0,0-.632.339c-.247.148-.493.3-.734.462a5.044,5.044,0,0,0-2.364,4.378c0,2.746.056,2.936,2.01,4.908a4.688,4.688,0,0,0,1.6,1.1,6.164,6.164,0,0,0,5.361-.486,6.014,6.014,0,0,0,1.509-8.786,6.127,6.127,0,0,0-2.072-1.643c-.09-.054-.2-.1-.3-.148a1.509,1.509,0,0,1-.974-1.341l.1-30.662a.951.951,0,0,1,1.513-.765,7.355,7.355,0,0,1,1.254,1.68l11.773,17.906c.328.5.677.986.994,1.492s.624.984.949,1.47a6.443,6.443,0,0,1,1.1,1.914,2.915,2.915,0,0,1-.124,1.339c-.173.651-.361,1.293-.524,1.947l-4.223,16.992c-.111.472-.228.943-.335,1.417-.064.282-.126.564-.179.848a3.326,3.326,0,0,0-.07.466.952.952,0,0,1-.93.93,2.211,2.211,0,0,0-.3.03,4.9,4.9,0,0,1-.8.071l-24.18.1a.951.951,0,0,1-.955-.972c.005-.226.025-.451.032-.675Z" transform="translate(-189.43 -192.344)" fill="#fff" fill-rule="evenodd"/>
    </g>
    <g id="Group_35" data-name="Group 35" transform="translate(0)">
      <path id="Path_4391" data-name="Path 4391" d="M41.159,0c-.9.021-1.811.049-2.712.115A7.178,7.178,0,0,0,37.13.28a.621.621,0,0,0-.308.258,3.113,3.113,0,0,0-.237,1.224c-.022.37-.038.74-.094,1.107a9.722,9.722,0,0,0-.03,1.389v4.03a.953.953,0,0,1-.951.951H12.415a.941.941,0,0,1-.926-.736A5.4,5.4,0,0,0,9.643,6.022c-1.451-1.3-2.75-1.205-4.6-1.205A4.818,4.818,0,0,0,1.651,6.385l-.638.766A6.212,6.212,0,0,0,0,11.332H0c0,2.674,2.929,5.24,5.535,5.24A5.886,5.886,0,0,0,10.7,14.1a5.99,5.99,0,0,0,.785-1.41.942.942,0,0,1,.926-.736h9.14a.952.952,0,0,1,.767,1.513,8.551,8.551,0,0,1-1.95,1.429c-.493.3-1.04.61-1.508.945a31.882,31.882,0,0,0-4.024,3.112l-4.506,4.6a37.913,37.913,0,0,0-3.045,4.112,41.239,41.239,0,0,0-6.7,21.9v1.179a1.309,1.309,0,0,0,.709.992,1.427,1.427,0,0,0,.757.2C2.989,51.9,3.237,50.57,3.3,49.861a56.424,56.424,0,0,1,1.232-8.668,42.987,42.987,0,0,1,3.362-9,40.671,40.671,0,0,1,2.891-4.655c.65-.941,1.418-1.873,2.159-2.742.442-.519.9-1.031,1.367-1.524a11.465,11.465,0,0,1,1.213-1.138c.429-.331.788-.763,1.22-1.111a42.885,42.885,0,0,1,7.39-5.07c1.126-.572,2.237-1.152,3.413-1.617,1.2-.475,2.365-.966,3.613-1.322.655-.187,1.314-.357,1.974-.523a10.133,10.133,0,0,1,2.254-.439.951.951,0,0,1,.972.951c0,1.281.1,2.557.1,3.839,0,.6.021,1.205.062,1.8a10.764,10.764,0,0,0,.213,1.7,1.183,1.183,0,0,0,.258.565,3.206,3.206,0,0,0,1.364.185c1.314-.005,2.622.1,3.934.1,4.755,0,9.508-.148,14.263-.1.13,0,.283.013.425.016l.082-.087c.155-.163.314-.318.476-.471.036-.034.082-.074.123-.115,0-.079,0-.173,0-.238,0-.3-.007-.6-.007-.9,0-1.05.1-2.094.1-3.141v-.033l.1-3.145a.951.951,0,0,1,1.029-.918,16.715,16.715,0,0,1,3.254.672c1.229.361,2.444.8,3.632,1.279,1.267.511,2.52,1.072,3.744,1.68a29.73,29.73,0,0,1,2.9,1.609,33.772,33.772,0,0,1,5.3,3.985l1.171,1.07.03.029q.564.564,1.128,1.128c.017.017.03.032.046.05l2.151,2.469.026.032A39.539,39.539,0,0,1,90.525,45.8c.139,1.125.229,4.763.709,5.59a.985.985,0,0,0,.532.442,1.377,1.377,0,0,0,1.205-.185,1.6,1.6,0,0,0,.652-1.386,41.275,41.275,0,0,0-4.289-18.279c-.4-.8-.815-1.584-1.234-2.371a36.339,36.339,0,0,0-4.346-6.187,52.285,52.285,0,0,0-4.4-4.482c-.146-.136-.32-.241-.474-.378s-.269-.261-.418-.376c-1.711-1.324-3.448-2.508-5.238-3.718a4.784,4.784,0,0,1-1.336-.992.952.952,0,0,1,.767-1.513h9.336a.941.941,0,0,1,.926.736,6.438,6.438,0,0,0,2.066,2.7,3.379,3.379,0,0,0,1.339.785c2.262.651,4.473.525,6.238-1.177,1.715-1.656,1.846-2.713,1.846-5.042h0a4.833,4.833,0,0,0-1.281-3.13,4.813,4.813,0,0,0-3.762-2.011c-1.865,0-3.133-.111-4.6,1.205A5.391,5.391,0,0,0,82.92,8.508a.943.943,0,0,1-.926.736H58.7a.953.953,0,0,1-.951-.951V5.443c0-1.053-.107-2.1-.1-3.155,0-.414-.049-1.582-.353-1.853A4.069,4.069,0,0,0,55.272.1h-.037l-3.229-.1H41.159ZM85.368,10.547a3.323,3.323,0,0,1,.9-2.117,3.17,3.17,0,0,1,4.367-.167,2.822,2.822,0,0,1,.959,1.529,3.164,3.164,0,1,1-6.225.754Zm-82.652,0A3.171,3.171,0,0,1,7.979,8.261a2.519,2.519,0,0,1,.509.564,3.237,3.237,0,0,1,.311,2.7A2.953,2.953,0,0,1,6.026,13.76,3.424,3.424,0,0,1,3.7,12.871a3.464,3.464,0,0,1-.986-2.323Zm52.221-3.44V17.426a.953.953,0,0,1-.945.951l-13.661.1a.951.951,0,0,1-.958-.951V3.863a.953.953,0,0,1,.951-.951H54.084a.953.953,0,0,1,.951.951c0,1.084-.1,2.16-.1,3.243Z" transform="translate(0)" fill="#fff" fill-rule="evenodd"/>
    </g>
  </g>
</svg>
