<svg id="digital-marketing" xmlns="http://www.w3.org/2000/svg" width="91.072" height="79.095" viewBox="0 0 91.072 79.095">
  <path id="Path_4335" data-name="Path 4335" d="M52.569,71.681a1.334,1.334,0,0,0,0,2.668H54.4a1.334,1.334,0,0,0,0-2.668Z" transform="translate(-42.122 -64.919)" fill="#fff"/>
  <path id="Path_4336" data-name="Path 4336" d="M103.484,71.681a1.334,1.334,0,1,0,0,2.668h1.833a1.334,1.334,0,1,0,0-2.668Z" transform="translate(-83.98 -64.919)" fill="#fff"/>
  <path id="Path_4337" data-name="Path 4337" d="M156.233,74.349a1.334,1.334,0,1,0,0-2.668H154.4a1.334,1.334,0,1,0,0,2.668Z" transform="translate(-125.839 -64.919)" fill="#fff"/>
  <path id="Path_4338" data-name="Path 4338" d="M164.049,178.657a1.334,1.334,0,0,0,1.887-1.886l-24.553-24.558A1.334,1.334,0,1,0,139.5,154.1l.428.428-2.966,7.191a1.333,1.333,0,0,0-1.752,2l.655.655-2.311,5.6-10.016,10.014a3.785,3.785,0,0,0,0,5.347l.18.18-.943.943,0,0a1.334,1.334,0,0,0-1.887,1.886l.088.088a6.3,6.3,0,0,0,8.742,8.743l.088.088a1.334,1.334,0,1,0,1.887-1.886l0,0,.943-.943.18.18a3.785,3.785,0,0,0,5.347,0l.185-.185,3.528,3.529a1.334,1.334,0,0,0,1.887-1.886l-3.528-3.529,4.225-4.224,2.76,2.761a.076.076,0,0,1,.018.079l-.688,1.9a2.754,2.754,0,0,0,.64,2.873l3.864,3.864a.879.879,0,0,1,0,1.242l-.542.542a.879.879,0,0,1-1.242,0l-1.736-1.736a1.334,1.334,0,0,0-1.887,1.887l1.736,1.736a3.55,3.55,0,0,0,5.015,0l.542-.542a3.55,3.55,0,0,0,0-5.015l-3.864-3.865a.075.075,0,0,1-.018-.079l.688-1.9a2.754,2.754,0,0,0-.64-2.873l-2.76-2.761,1.832-1.832,5.6-2.31.655.655a1.333,1.333,0,0,0,2-1.751l7.192-2.965Zm-31.462-.307h0l-2.331,2.331a.855.855,0,0,1-1.21,0l-1.213-1.213,3.541-3.541,1.213,1.213A.855.855,0,0,1,132.587,178.35Zm-8.951,16.16a3.625,3.625,0,0,1-.713-4.122l4.834,4.835A3.637,3.637,0,0,1,123.636,194.51Zm7.1-1.964-.943.943-5.139-5.14.943-.943Zm3.953.181-9.272-9.274a1.114,1.114,0,0,1,0-1.574l.525-.525,1.213,1.213a3.523,3.523,0,0,0,4.984,0l2.331-2.331a3.522,3.522,0,0,0,0-4.983l-1.213-1.213,1.421-1.42,10.846,10.847L137.4,191.6l0,0,0,0-1.126,1.126A1.114,1.114,0,0,1,134.693,192.727ZM147.728,181.9,136.254,170.42l1.65-4,13.824,13.826Zm6.672-2.751-15.393-15.4,2.961-7.178,19.611,19.615Z" transform="translate(-98.579 -130.805)" fill="#fff"/>
  <path id="Path_4339" data-name="Path 4339" d="M325.97,175.974l-3.574,3.574a1.334,1.334,0,0,0,1.887,1.887l3.574-3.574a1.334,1.334,0,0,0-1.887-1.887Z" transform="translate(-264.729 -150.34)" fill="#fff"/>
  <path id="Path_4340" data-name="Path 4340" d="M285.384,146.415V141.36a1.334,1.334,0,1,0-2.668,0v5.055a1.334,1.334,0,0,0,2.668,0Z" transform="translate(-232.428 -121.107)" fill="#fff"/>
  <path id="Path_4341" data-name="Path 4341" d="M348.694,236.527a1.334,1.334,0,0,0,1.334,1.334h5.055a1.334,1.334,0,0,0,0-2.668h-5.055A1.334,1.334,0,0,0,348.694,236.527Z" transform="translate(-286.67 -199.347)" fill="#fff"/>
  <path id="Path_4342" data-name="Path 4342" d="M57.224,169.778a1.334,1.334,0,0,0-1.334-1.334H44.478a1.334,1.334,0,1,0,0,2.668H55.89A1.334,1.334,0,0,0,57.224,169.778Z" transform="translate(-35.47 -144.471)" fill="#fff"/>
  <path id="Path_4343" data-name="Path 4343" d="M44.478,205.918a1.334,1.334,0,1,0,0,2.668h7.855a1.334,1.334,0,1,0,0-2.668Z" transform="translate(-35.47 -175.279)" fill="#fff"/>
  <path id="Path_4344" data-name="Path 4344" d="M362.37,365.523H343.435a1.334,1.334,0,1,0,0,2.668H362.37a1.334,1.334,0,0,0,0-2.668Z" transform="translate(-281.25 -306.494)" fill="#fff"/>
  <path id="Path_4345" data-name="Path 4345" d="M395.254,398.567H383.435a1.334,1.334,0,0,0,0,2.668h11.819a1.334,1.334,0,1,0,0-2.668Z" transform="translate(-314.135 -333.66)" fill="#fff"/>
  <path id="Path_4346" data-name="Path 4346" d="M81.938,33.667H28.58a1.334,1.334,0,1,0,0,2.668H81.938A6.473,6.473,0,0,1,88.4,42.8v4.39H2.668V42.8a6.473,6.473,0,0,1,6.465-6.466H23.246a1.334,1.334,0,1,0,0-2.668H9.134A9.144,9.144,0,0,0,0,42.8v60.828a9.144,9.144,0,0,0,9.134,9.134h72.8a9.144,9.144,0,0,0,9.134-9.134v-3.307a1.334,1.334,0,1,0-2.668,0v3.307a6.473,6.473,0,0,1-6.465,6.465H9.134a6.473,6.473,0,0,1-6.465-6.466V49.858H88.4V94.988a1.334,1.334,0,0,0,2.668,0V42.8A9.144,9.144,0,0,0,81.938,33.667Z" transform="translate(0 -33.667)" fill="#fff"/>
</svg>
