<svg id="Слой_x0020_1" xmlns="http://www.w3.org/2000/svg" width="82.403" height="80.542" viewBox="0 0 82.403 80.542">
  <g id="_2734783304816" transform="translate(0 0)">
    <path id="Path_4374" data-name="Path 4374" d="M2.1,51.519H57.3V78.4H2.1V51.519ZM82.41,24.679V36.268c-.026,1.387-.444,2.512-1.859,2.931-1.861.552-8.052-.383-9.784.195-.425,1.274.039,25.772-.094,31.772-.017.758-.2,1.315-1.145,1.43L59.4,72.6c0,2.038-.012,4.081,0,6.119.009,1.147.042,1.735-1.282,1.776-.991.03-2.065-.009-3.067-.009H6.125c-4.64,0-5.848.471-6.116-1.075v-28.7a5.832,5.832,0,0,1,.042-.766l.483-.523H17.07V2.273C17.064.543,16.847,0,18.836.015l35.252,0c2-.018,2.064.7,4.545,3.18L66.438,11c5.266,5.266,4.225,2.537,4.225,11.386,1.758,0,8.858-.247,9.967.172a2.707,2.707,0,0,1,1.4,1.177,2.365,2.365,0,0,1,.384.939ZM57.02,24.52l11.549-.038c2.534,0,9.649-.3,11.588.161.283,1.172.393,11.539,0,12.392-.338.338-23.226.156-23.295.119-.7-.377-.363-7.983-.363-9.776,0-1.171-.265-2.047.521-2.858ZM68.57,39.289V70.35H59.316l.08-20.41c-1.08-.931-3.13-.512-4.506-.512H19.161V2.112H53.924v11.1c0,4.462-.717,3.7,7.242,3.7h7.4v5.472c-3.739,0-7.543-.071-11.273-.007-3.851.065-2.89,4.841-2.89,8.376,0,10.183-1.506,8.53,14.163,8.53ZM56.016,3.721,67,14.625l-10.983.039V3.72Z" transform="translate(-0.009 -0.014)" fill="#fff" fill-rule="evenodd"/>
    <path id="Path_4375" data-name="Path 4375" d="M2.083,102.2H3.612l.08,32.51H2.083ZM-.009,135.515V101.621c.06-1.668.344-2.018,1.481-6.149.213-.776.305-1.82,1.18-2.061,1.013-.279,1.282.7,1.459,1.449.373,1.571.921,3.2,1.351,4.764.707,2.575.322,9.05.322,12.07,0,1.7.143,23.471-.058,24.566-.728.949-1.427.7-2.518.7-.76,0-2.187.155-2.8-.255-.219-.145-.346-.6-.416-1.192Zm2.846-36.9.492,1.3-.9.031.4-1.329Z" transform="translate(0.01 -88.514)" fill="#fff" fill-rule="evenodd"/>
    <path id="Path_4376" data-name="Path 4376" d="M162.6,129.25l.921.023-.419,1.317ZM162.246,94.5h1.609v32.51h-1.63ZM160.958,92.4c-1.168.453-.807.975-.8,2.253.006,4.116-.134,32.968.031,33.927.1.609,1.712,6.608,2.18,7,.837.694,1.588.033,1.82-.842,1.544-5.812,1.763-4.5,1.763-10.469V99.486c0-1.811.157-4.413.009-6.124-.1-1.1-1.05-1.128-1.937-1.121a9.34,9.34,0,0,0-3.061.164Z" transform="translate(-151.784 -87.411)" fill="#fff" fill-rule="evenodd"/>
    <path id="Path_4377" data-name="Path 4377" d="M427.854,105.053a3.151,3.151,0,1,1-2.106-3.849A3.151,3.151,0,0,1,427.854,105.053Zm-4.212-5.941a4.243,4.243,0,0,0-1.812.721c-4.615,3.134-1.717,10.8,4.085,9.556a5.322,5.322,0,0,0,4.1-6.335,7.621,7.621,0,0,0-.773-1.8,5.143,5.143,0,0,0-5.6-2.141Z" transform="translate(-397.758 -93.782)" fill="#fff" fill-rule="evenodd"/>
    <path id="Path_4378" data-name="Path 4378" d="M1110.486,498.49a3.258,3.258,0,0,1,2.606-3.673,3.193,3.193,0,0,1,3.642,2.577C1117.454,501.6,1111.233,502.5,1110.486,498.49Zm1.9-5.619a3.786,3.786,0,0,0-1.776.758,5.214,5.214,0,0,0-2.1,5.708c1.6,6.311,11.6,4.529,10.281-2.556a5.436,5.436,0,0,0-3.9-3.991,3.669,3.669,0,0,0-1.192-.1C1112.441,492.685,1113.031,492.676,1112.39,492.871Z" transform="translate(-1050.778 -467.103)" fill="#fff" fill-rule="evenodd"/>
    <path id="Path_4379" data-name="Path 4379" d="M145.843,1153.631c-1.391,4.028-7.1,2.068-6.025-1.882a3.157,3.157,0,1,1,6.026,1.882Zm-3.4-6.139a4.56,4.56,0,0,0-3.567,1.709,5.365,5.365,0,0,0-1.32,3.811,5.5,5.5,0,0,0,1.718,3.6,5.294,5.294,0,0,0,8.825-4.48,5.192,5.192,0,0,0-4.507-4.67c-1.805-.236-.781-.061-1.15.027Z" transform="translate(-130.392 -1087.762)" fill="#fff" fill-rule="evenodd"/>
    <path id="Path_4380" data-name="Path 4380" d="M745.58,1232.183c-.031.016-.692.1-.521,1.032a1.12,1.12,0,0,0,1.037.88c.922.114,10.723.063,11.114-.142a1.03,1.03,0,0,0-.49-1.953l-7.41.007c-1.1,0-2.83-.27-3.729.175Z" transform="translate(-706.338 -1167.95)" fill="#fff" fill-rule="evenodd"/>
    <path id="Path_4381" data-name="Path 4381" d="M745.807,1328.425a.979.979,0,0,0,.19,1.916l11.211-.051a1.058,1.058,0,0,0-.294-2.014c-.652-.127-10.349-.175-11.107.15Z" transform="translate(-706.404 -1259.203)" fill="#fff" fill-rule="evenodd"/>
    <path id="Path_4382" data-name="Path 4382" d="M745.592,1136.38l11.537.025.694-.915a1.8,1.8,0,0,0-.727-1.12l-11.519-.041C744.8,1135.22,744.733,1135.533,745.592,1136.38Z" transform="translate(-706.281 -1075.421)" fill="#fff" fill-rule="evenodd"/>
    <path id="Path_4383" data-name="Path 4383" d="M1332.28,539.261c.435,1.551.926,1.14,4.359,1.14,3.522,0,4.079.429,4.52-1.14-.785-1.35-1.361-.952-4.359-.952C1334.053,538.309,1333.066,537.908,1332.28,539.261Z" transform="translate(-1263.09 -510.301)" fill="#fff" fill-rule="evenodd"/>
    <path id="Path_4384" data-name="Path 4384" d="M1332.271,607.441c.435,1.551.927,1.14,4.359,1.14.913,0,1.826,0,2.739,0,1.224.01,1.437.081,1.781-1.144-.785-1.35-1.361-.952-4.359-.952-2.747,0-3.734-.4-4.52.952Z" transform="translate(-1263.08 -574.94)" fill="#fff" fill-rule="evenodd"/>
    <path id="Path_4385" data-name="Path 4385" d="M1183.157,567.438c-1.86.8-.443,3.276,1.108,2.567A1.4,1.4,0,1,0,1183.157,567.438Z" transform="translate(-1120.873 -537.82)" fill="#fff" fill-rule="evenodd"/>
    <path id="Path_4386" data-name="Path 4386" d="M493.948,174.008a1.4,1.4,0,1,0,.994,2.615C496.687,175.978,495.853,173.187,493.948,174.008Z" transform="translate(-467.392 -164.83)" fill="#fff" fill-rule="evenodd"/>
    <path id="Path_4387" data-name="Path 4387" d="M214.91,1222.828c-.573-.581-1.1-1.021-1.869-.674a1.423,1.423,0,0,0-.844,1.765c.407,1.324,3.043,1.709,2.714-1.09Z" transform="translate(-201.11 -1158.568)" fill="#fff" fill-rule="evenodd"/>
  </g>
</svg>
