<svg id="graphic" xmlns="http://www.w3.org/2000/svg" width="83.634" height="83.635" viewBox="0 0 83.634 83.635">
  <g id="Group_19" data-name="Group 19" transform="translate(0 31.424)">
    <g id="Group_18" data-name="Group 18">
      <path id="Path_4306" data-name="Path 4306" d="M82.407,242.131H74.469V193.6a1.228,1.228,0,0,0-1.228-1.228H60.148A1.228,1.228,0,0,0,58.92,193.6v48.528H49.591V208.006a1.228,1.228,0,0,0-1.228-1.228H35.271a1.228,1.228,0,0,0-1.228,1.228v34.125H24.714V214.553a1.228,1.228,0,0,0-1.228-1.228H10.393a1.228,1.228,0,0,0-1.228,1.228v27.578H1.228a1.228,1.228,0,0,0,0,2.455H82.407a1.227,1.227,0,1,0,0-2.455Zm-60.148,0H11.62V215.781H22.259Zm24.878,0H36.5v-32.9H47.137Zm24.877,0H61.376v-47.3H72.014v47.3Z" transform="translate(0 -192.376)" fill="#00b1ff"/>
    </g>
  </g>
  <g id="Group_21" data-name="Group 21" transform="translate(1.31 0)">
    <g id="Group_20" data-name="Group 20">
      <path id="Path_4307" data-name="Path 4307" d="M86.423.963A3.844,3.844,0,0,0,83.4.03L72.925,1.339a3.846,3.846,0,0,0,.954,7.633l.855-.107A92.839,92.839,0,0,1,35.793,35.347a88.792,88.792,0,0,1-24.05,5.244,3.846,3.846,0,0,0,.119,7.69l.118,0c.466-.014,11.577-.406,26.216-5.622A103.157,103.157,0,0,0,61.21,31.087a1.228,1.228,0,0,0-1.372-2.036A100.682,100.682,0,0,1,37.371,40.345c-14.279,5.088-25.016,5.467-25.465,5.481h-.044a1.391,1.391,0,0,1-.041-2.782,90.725,90.725,0,0,0,24.8-5.387,94.975,94.975,0,0,0,42-29.628,1.238,1.238,0,0,0-1.109-1.987l-3.939.492a1.391,1.391,0,1,1-.345-2.761L83.705,2.465a1.405,1.405,0,0,1,1.563,1.38V14.32a1.391,1.391,0,1,1-2.782,0V11.145a1.228,1.228,0,0,0-2.179-.776A94.908,94.908,0,0,1,64.791,25.478a1.228,1.228,0,1,0,1.5,1.944A97.288,97.288,0,0,0,80.035,14.494a3.846,3.846,0,0,0,7.689-.173V3.846A3.849,3.849,0,0,0,86.423.963Z" transform="translate(-8.017 0)" fill="#00b1ff"/>
    </g>
  </g>
</svg>
