<svg xmlns="http://www.w3.org/2000/svg" width="37.777" height="38.805" viewBox="0 0 37.777 38.805">
  <g id="Group_42" data-name="Group 42" transform="translate(-1579 -44.96)">
    <path id="Path_4290" data-name="Path 4290" d="M15.7,412.268a5.4,5.4,0,0,0-1.2-3.617,21.594,21.594,0,0,0-3.322-4.078A4.519,4.519,0,0,0,5.847,403.4a12.755,12.755,0,0,0-2.61,2.324c-.23.245-.334.358-.605.629l-.551.681a9.507,9.507,0,0,0-1.425,9.487,15.055,15.055,0,0,0,4.034,5.839l9.778,9.83c1.355,1.376,3.5,3.691,5.173,4.633,2.5,1.4,4.675,2.306,7.79,1.785a11.233,11.233,0,0,0,6.132-3.662,6.394,6.394,0,0,0,2.08-2.867,4.375,4.375,0,0,0-.879-3.822,17.17,17.17,0,0,0-1.814-1.888,29.479,29.479,0,0,0-3.545-2.558c-1.791-1.125-3.8-1.232-5.162.581-.158.21-.4.479-.567.668-1.389,1.585-2.09,2.089-3.752.442l-4.9-4.9c-.524-.519-2.022-1.98-2.408-2.461-1.157-1.441.533-2.663,1.692-3.618a3.061,3.061,0,0,0,1.4-2.252Z" transform="translate(1579.008 -354.991)" fill="#fff" fill-rule="evenodd"/>
    <path id="Path_4291" data-name="Path 4291" d="M1766.938,11.152a19.49,19.49,0,0,0-2.1-.018c-.326,0-.689.036-.881-.153a.581.581,0,0,1-.012-.743l2.7-3.594c.224-.3.664-1.111,1.187-.569.331.342.1,3.273.165,4.009.505.019,1.049-.027,1.02.556-.026.535-.533.477-1.025.5-.035.672.27,2.093-.55,2.072-.777-.019-.483-1.436-.509-2.061Zm-7.36,2.076c-.63,0-1.229-.412-.938-1.139A42.838,42.838,0,0,1,1762,9.05a1.227,1.227,0,0,0-1.38-1.982,1.533,1.533,0,0,0-.974,1.2c-.053.341-.052.626-.363.733-.87.3-.934-1.062-.211-2.006a2.385,2.385,0,0,1,4.093.169,2.36,2.36,0,0,1-.855,3.014l-1.728,1.474a2.382,2.382,0,0,0-.543.533c.912-.01,1.827,0,2.74,0,.462,0,.878-.021.987.372.132.48-.246.676-.665.676h-3.524ZM1762.848.05a9.322,9.322,0,0,0-6.628,3.434,9.68,9.68,0,0,0-1.734,3.259,11.592,11.592,0,0,0,.141,6.632,1.075,1.075,0,0,1,.092.984c-.072.367-.132.676-.2,1.039-.257,1.368-.992,3.286.4,3.814.772.293,2.917-.567,4.041-.83.356-.083,1.106.366,1.872.565a10.259,10.259,0,0,0,8.2-1.191,9.656,9.656,0,0,0-.205-16.244,9.024,9.024,0,0,0-1.662-.834,9.755,9.755,0,0,0-4.31-.627Z" transform="translate(-156.561 44.947)" fill="#fff" fill-rule="evenodd"/>
  </g>
</svg>
