<svg xmlns="http://www.w3.org/2000/svg" width="82.447" height="82.409" viewBox="0 0 82.447 82.409">
  <g id="_1681852" data-name="1681852" transform="translate(0 -0.012)">
    <path id="Path_4405" data-name="Path 4405" d="M43.214.015h-.641A42.959,42.959,0,0,0,11.931,12.388,40.435,40.435,0,0,0,0,41.2,41.268,41.268,0,0,0,41.221,82.421,40.521,40.521,0,0,0,70.106,70.475a42.848,42.848,0,0,0,12.338-30.65v-.567ZM78.047,38.741a33.532,33.532,0,0,1-24.857-9.506c-7.952-7.95-9.233-16.17-9.22-24.586ZM55.416,43.035l-14.194,12.9-14.188-12.9a7.735,7.735,0,0,1,0-11.71,10.046,10.046,0,0,1,13.262,0l.926.843.927-.843a9.857,9.857,0,0,1,6.962-2.474c.662.776,1.359,1.553,2.132,2.326a34.639,34.639,0,0,0,6.79,5.294,7.766,7.766,0,0,1-2.621,6.562ZM47.061,26.21a12.549,12.549,0,0,0-5.84,2.325,12.888,12.888,0,0,0-16.04.761,10.482,10.482,0,0,0,0,15.773L41.221,59.65,57.263,45.068a10.743,10.743,0,0,0,3.532-7.132,35.454,35.454,0,0,0,6.489,2.352c.017.3.045.6.045.912A26.107,26.107,0,1,1,41.221,15.092c.329,0,.649.032.972.05A30.535,30.535,0,0,0,47.061,26.21ZM68.16,68.53A37.782,37.782,0,0,1,41.221,79.672,38.517,38.517,0,0,1,2.748,41.2,37.7,37.7,0,0,1,13.866,14.332,40.079,40.079,0,0,1,41.237,2.79a59.42,59.42,0,0,0,.448,9.565c-.155,0-.307-.014-.463-.014A28.855,28.855,0,1,0,70.077,41.2c0-.1-.012-.2-.015-.309a38.419,38.419,0,0,0,6.62.582c1.183,0,2.185-.056,2.979-.126a39.955,39.955,0,0,1-11.5,27.187Zm0,0" transform="translate(0 0)" fill="#fff"/>
    <path id="Path_4406" data-name="Path 4406" d="M55.869,50.932,54.85,48.379C33.674,56.85,32.017,80.936,32,81.178l2.748.163c.011-.219,1.589-22.6,21.121-30.409Zm0,0" transform="translate(-26.504 -40.059)" fill="#fff"/>
    <path id="Path_4407" data-name="Path 4407" d="M32,255.809h2.748v2.748H32Zm0,0" transform="translate(-26.504 -211.862)" fill="#fff"/>
    <path id="Path_4408" data-name="Path 4408" d="M240,342.711v2.748c.215,0,21.573-.228,31.466-20l-2.46-1.228c-9.115,18.218-28.81,18.477-29.007,18.477Zm0,0" transform="translate(-198.778 -268.535)" fill="#fff"/>
    <path id="Path_4409" data-name="Path 4409" d="M208,431.809h2.748v2.748H208Zm0,0" transform="translate(-172.275 -357.633)" fill="#fff"/>
  </g>
</svg>
