<svg id="_4313114advertisementbroadcastglobalinternationalloudspeaker-115821_115758" data-name="4313114advertisementbroadcastglobalinternationalloudspeaker-115821_115758" xmlns="http://www.w3.org/2000/svg" width="83.31" height="83.31" viewBox="0 0 83.31 83.31">
  <path id="Path_4367" data-name="Path 4367" d="M84.31,23.843a22.843,22.843,0,1,0-44.864,6.032A45.69,45.69,0,0,1,19.2,34.593h-8.8A4.026,4.026,0,0,0,6.622,37.28H5.031A4.036,4.036,0,0,0,1,41.311v8.062A4.036,4.036,0,0,0,5.031,53.4H6.622a4.026,4.026,0,0,0,3.784,2.687H15.79L11.828,78.379a5.11,5.11,0,0,0-.078.883A5.055,5.055,0,0,0,16.8,84.31h3.877a5.022,5.022,0,0,0,4.987-4.265l1.229-7.828h3.671a2.69,2.69,0,0,0,2.687-2.687V66.842a2.69,2.69,0,0,0-2.687-2.687H28.155l1.09-6.943A45.71,45.71,0,0,1,49.82,67.84l.382.345h7.235V54.641a9.417,9.417,0,0,0,8.011-8.327A22.85,22.85,0,0,0,84.31,23.843ZM81.22,25.29a8.869,8.869,0,0,1-5.2-.849A5.369,5.369,0,0,0,68.5,31.019a7.766,7.766,0,0,1,.265,4.863,14.78,14.78,0,0,0-.312,6.853,20.114,20.114,0,0,1-3.121.877,9.419,9.419,0,0,0-7.9-7.568V30.562h2.11a7.3,7.3,0,0,0,3.62-13.631L61.9,16.208a8.883,8.883,0,0,1-4.462-7.691A11.49,11.49,0,0,0,56.622,4.3a20,20,0,0,1,3.886-.564,7.678,7.678,0,0,0-.384,2.4,7.814,7.814,0,0,0,4.741,7.189l3.026,1.3a2.7,2.7,0,0,1,1.639,2.486A5.4,5.4,0,0,0,74.922,22.5a13.241,13.241,0,0,0,6.451-1.665,20.18,20.18,0,0,1,.25,3.009c0,.481-.032.954-.066,1.427C81.446,25.28,81.33,25.277,81.22,25.29Zm-.46-7.26a10.563,10.563,0,0,1-5.838,1.782,2.708,2.708,0,0,1-2.7-2.706,5.386,5.386,0,0,0-3.268-4.956l-3.026-1.3a5.126,5.126,0,0,1-3.112-4.718,5.057,5.057,0,0,1,.586-2.35A20.2,20.2,0,0,1,80.76,18.03ZM54.062,5.116a8.822,8.822,0,0,1,.687,3.4,11.573,11.573,0,0,0,5.818,10.025l1.266.723a4.608,4.608,0,0,1-2.287,8.609h-2.11V22.5H50.2l-.383.345c-.144.129-.294.25-.439.378,0-.017-.005-.034-.005-.051a7.4,7.4,0,0,0-6.4-7.317A20.245,20.245,0,0,1,54.062,5.116ZM41.311,23.843a20.048,20.048,0,0,1,.748-5.367,4.7,4.7,0,0,1,4.626,4.695,7.351,7.351,0,0,0,.31,2,45.6,45.6,0,0,1-5.126,3.4A20.21,20.21,0,0,1,41.311,23.843ZM3.687,49.374V41.311a1.345,1.345,0,0,1,1.344-1.344H6.375v10.75H5.031A1.345,1.345,0,0,1,3.687,49.374Zm5.375,2.687V38.624a1.345,1.345,0,0,1,1.344-1.344h8.8A48.374,48.374,0,0,0,49.374,26.736V63.95A48.365,48.365,0,0,0,19.2,53.4h-8.8A1.345,1.345,0,0,1,9.062,52.061ZM23.007,79.629a2.349,2.349,0,0,1-2.333,1.994H16.8a2.365,2.365,0,0,1-2.311-1.881l1.819-.91A8.76,8.76,0,0,0,20.73,73.71a6.15,6.15,0,0,1,3.807-3.835Zm7.554-12.787v2.687h-3.25l.422-2.687Zm-5.572.152a8.873,8.873,0,0,0-6.819,5.9A6.071,6.071,0,0,1,15.1,76.428l-.22.11,3.636-20.446H19.2a45.84,45.84,0,0,1,7.4.613Zm29.759-1.5H52.061V25.187h2.687Zm2.687-13.573V38.76a6.719,6.719,0,0,1,0,13.166ZM71,41.6a12.047,12.047,0,0,1,.341-4.976,10.558,10.558,0,0,0-.317-6.522,2.65,2.65,0,0,1-.107-1.4,2.681,2.681,0,0,1,3.863-1.884,11.53,11.53,0,0,0,6.4,1.15A20.222,20.222,0,0,1,71,41.6Z" transform="translate(-1 -1)" fill="#fff"/>
  <path id="Path_4368" data-name="Path 4368" d="M17.062,32.687A2.69,2.69,0,0,0,14.375,30H11.687A2.69,2.69,0,0,0,9,32.687v5.375a2.69,2.69,0,0,0,2.687,2.687h2.687a2.69,2.69,0,0,0,2.687-2.687Zm-5.375,5.375V32.687h2.687v5.375Z" transform="translate(1.75 8.968)" fill="#fff"/>
</svg>
