<svg id="photography" xmlns="http://www.w3.org/2000/svg" width="91.072" height="80.821" viewBox="0 0 91.072 80.821">
  <path id="Path_4351" data-name="Path 4351" d="M425.85,109.109h-4.231a1.334,1.334,0,1,0,0,2.668h4.231a1.334,1.334,0,1,0,0-2.668Z" transform="translate(-345.527 -94.827)" fill="#fff"/>
  <path id="Path_4352" data-name="Path 4352" d="M255.588,145.29a13.531,13.531,0,1,0,13.534,13.534A13.547,13.547,0,0,0,255.588,145.29Zm0,24.395a10.863,10.863,0,1,1,10.866-10.861A10.873,10.873,0,0,1,255.588,169.685Z" transform="translate(-199.003 -124.572)" fill="#fff"/>
  <path id="Path_4353" data-name="Path 4353" d="M86.076,35.974H69.869L68.3,31.638c-.253-.7-1.023-2.823-3.2-2.823H44.349c-2.175,0-2.945,2.125-3.2,2.824l-1.569,4.335h-13.2V32.749A3.189,3.189,0,0,0,23.2,29.564H17.257a3.186,3.186,0,0,0-3.18,3.185v3.283a5.007,5.007,0,0,0-4.236,4.943V68.262L3.8,69.435a4.7,4.7,0,0,0-3.711,5.5l5.99,30.9a4.7,4.7,0,0,0,5.5,3.71l13.03-2.528A1.334,1.334,0,1,0,24.1,104.4l-13.028,2.528a2.032,2.032,0,0,1-2.377-1.6l-5.99-30.9a2.027,2.027,0,0,1,1.6-2.374l32.49-6.3a2.035,2.035,0,0,1,2.371,1.606l5.995,30.9a2.027,2.027,0,0,1-1.6,2.374l-13.036,2.528a1.334,1.334,0,0,0,.508,2.62l13.037-2.529a4.7,4.7,0,0,0,3.711-5.5L46.16,89.391H61.051a1.334,1.334,0,0,0,0-2.668H45.642l-1.406-7.246a20.539,20.539,0,0,0,31.692-9.5H88.4V84.391a2.333,2.333,0,0,1-2.327,2.333H67.584a1.334,1.334,0,1,0,0,2.668H86.076a5,5,0,0,0,5-5V40.975a5,5,0,0,0-5-5ZM43.66,32.547c.256-.706.488-1.064.689-1.064H65.1c.251,0,.513.579.689,1.063l1.24,3.427H42.42Zm-7.614,30.52c0,.037,0,.075,0,.112l-9.662,1.874V58.822h10.1a20.55,20.55,0,0,0-.442,4.245Zm-19.3-30.318a.521.521,0,0,1,.512-.517H23.2a.518.518,0,0,1,.517.517v3.225H16.745ZM12.51,40.975a2.333,2.333,0,0,1,2.327-2.332h8.881V65.57l-4.516.876V51.4a2.326,2.326,0,0,0-2.324-2.324H12.51Zm0,10.77h4.024V66.964l-4.024.781ZM56.584,80.938a17.875,17.875,0,0,1-13.193-5.819l-1.6-8.268a4.655,4.655,0,0,0-1.982-3,4.745,4.745,0,0,0-1.088-.547c0-.081,0-.161,0-.242A17.873,17.873,0,1,1,56.584,80.938ZM88.4,67.313H76.686a20.6,20.6,0,0,0,0-8.491H88.4Zm0-11.159H75.93a20.54,20.54,0,0,0-38.686,0H26.386V38.642h59.69A2.333,2.333,0,0,1,88.4,40.975V56.154Z" transform="translate(0 -28.815)" fill="#fff"/>
  <path id="Path_4354" data-name="Path 4354" d="M70.825,288.249a2.032,2.032,0,0,0,.321-1.538l-4.534-22.784a2.321,2.321,0,0,0-2.833-1.661l-24.747,4.8a2.314,2.314,0,0,0-2,2.618l4.536,22.768a2.04,2.04,0,0,0,.877,1.306,2.542,2.542,0,0,0,1.425.421,2.814,2.814,0,0,0,.534-.051l24.742-4.8A2.617,2.617,0,0,0,70.825,288.249Zm-28.541-5.909-2.542-12.694,24.349-4.723,1.477,7.423-3.122.606c-5.954,1.155-7.931,2.938-9.843,4.662-1.851,1.67-3.764,3.394-10.319,4.725Zm1.808,9.128-.621-3.206-.662-3.307c7.281-1.482,9.561-3.535,11.583-5.359,1.791-1.615,3.337-3.01,8.564-4.024l3.134-.609,2.345,11.783Z" transform="translate(-30.411 -220.699)" fill="#fff"/>
</svg>
