<svg id="Слой_x0020_1" xmlns="http://www.w3.org/2000/svg" width="82.003" height="82.144" viewBox="0 0 82.003 82.144">
  <g id="_2734780303456" transform="translate(0)">
    <path id="Path_4392" data-name="Path 4392" d="M25.606,7694.528c0-.42.075-.375.084-.752l2.477,2.375c.791.731.9.958,1.391,1.454a4.152,4.152,0,0,1,.566.6H25.606v-3.681Zm56.38-23.254v.485a43.416,43.416,0,0,1-.159,4.374,6.423,6.423,0,0,1-4.943,5.346v23.339H70.358a29.25,29.25,0,0,1-2.732-1.116c-4.218-1.876-9-3.836-13.306-5.683l-23.862-10.183c-2.851-1.292-2.146-1.086-4.853-1.086,0,3.861-.344,2.792,1.317,4.454.226.226.465.434.665.673.961,1.15,4.756,4.832,6.068,6.144L35,7699.358c.437.437,1.2,1.048,1.234,1.443H25.606v8.951h3.848v7.779l-12.969-.081c-.952-.022-.9-.173-.975-.447l-2-9.879c-.921-4.606-2.157-10.331-2.915-14.9a19.529,19.529,0,0,1-.382-5.557l-2-.511a11.481,11.481,0,0,1-8.089-9.143,11.984,11.984,0,0,1,1.538-7.93l1.709-2.056a10.9,10.9,0,0,1,5.469-3.064,9.1,9.1,0,0,1,2.174-.252c1.306-.2,3.449,0,4.89-.045.445-.013.63-.09,1.167-.087h8.617c2.228,0,1.841.25,3.348-.416.271-.12.561-.219.832-.338l5.224-2.221c.859-.36,4.843-2.043,5.234-2.043a5.5,5.5,0,0,1,1.087,2.091c0,.283-10.506,4.416-11.962,5.186v18.737a25.147,25.147,0,0,1,2.679,1.085l16.81,7.2c.233.1.348.173.634.286l18.8,8.055a14.65,14.65,0,0,0,2.654,1.027h3.179v-30.95h2.677c0,1.09-.135,6.731.167,7.361a3.184,3.184,0,0,0,1.495-1.183,3.064,3.064,0,0,0,.764-1.913v-4.266h2.677Zm-68.844,20.578c3.34-.278,6.452-.167,9.871-.167v2.676H20.419v2.594h2.593v2.509H20.419v2.677h2.593v2.425H20.419v2.677h2.593v2.51H20.419v2.593H26.86v2.509h-9.2c-.436-1.872-.744-3.775-1.136-5.722l-3.381-17.28Zm-.335-5.1H23.013v2.342H12.807Zm2.259-20.5H26.86v17.818H12.138a13.084,13.084,0,0,1-3.062-.284,9.909,9.909,0,0,1-2.36-1.07,8.892,8.892,0,0,1-3.194-3.581c.638,0,.933-.084,1.589-.084H7.7v-2.593H2.6v-2.51h5.27v-2.676H4.442c-.464,0-.5-.084-.92-.084a8.628,8.628,0,0,1,7.442-4.854c1.431-.018,2.642-.081,4.1-.081Z" transform="translate(0.016 -7635.388)" fill="#fff" fill-rule="evenodd"/>
    <path id="Path_4393" data-name="Path 4393" d="M14388.042,28.106V6.943c0-1.82.392-2.89,1.789-3.732a6.317,6.317,0,0,1,1.307-.534h26.936a4.647,4.647,0,0,1,2.368,1.48,4.808,4.808,0,0,1,.728,3.2V28.19a6.713,6.713,0,0,1-.823,1.352,4.567,4.567,0,0,1-1.936,1.326c-.306.027-.768,0-1.089,0l-11.294.084V36.89c-.363-.243-4.367-4.326-5.041-5-.173-.174-.687-.741-.833-.839-.313-.213-1.1-.1-1.57-.1-.825,0-7.766.01-8.176-.189-.972-.472-2.365-1.93-2.365-2.655ZM14404.556,0h.174q.053,0,.111.009c1.873.208,8.8.037,11.563.071.431.005.46.067.832.087a5,5,0,0,1,2.376.3,6.307,6.307,0,0,1,4.148,6.641c0,.661.076,1.013.083,1.618v10.26c0,1.489-.083,2.773-.083,4.182l-.007,5.345a8.611,8.611,0,0,1-1.011,2.168c-1.413,2.069-3.172,2.792-5.757,2.775-.752,0-1.275.084-2.093.084h-2.09c-1.461,0-2.681.084-4.183.084V43.08c-.339-.09-1.142-1.017-1.443-1.317-.48-.481-.9-.9-1.381-1.38-.939-.941-1.819-1.82-2.761-2.76l-2.759-2.76c-.283-.282-1.122-1.253-1.45-1.312-.822-.148-5.991.2-8.049-.147a6.2,6.2,0,0,1-4.743-3.455,3.424,3.424,0,0,1-.587-2.176c.009-1.838-.083-3.467-.083-5.354V8.449c0-2.113-.026-4.252,1.319-5.876a5.847,5.847,0,0,1,4.785-2.409c2.374,0,4.657-.081,7.113-.081l5.432,0c.221-.018.346-.067.541-.079Z" transform="translate(-14341.841)" fill="#fff" fill-rule="evenodd"/>
    <path id="Path_4394" data-name="Path 4394" d="M16962.131,2028.535l3.736-.531c.514-.128.559-.812,1.236-1.943l1.053-1.625,1.732,3.286c.133.195.076.172.334.252a4.792,4.792,0,0,0,.584.084c.551.076,2.918.422,3.2.56-.283.422-2.844,2.763-2.844,2.844,0,1.387.334,2.466.334,3.931-.764-.178-3.275-1.673-3.6-1.673-.211,0-2.148,1.08-2.678,1.34-.3.15-.619.257-.918.417,0-.937.584-2.73.584-3.764,0-.614-1.912-2.086-2.494-2.694C16962.131,2028.737,16962.273,2028.848,16962.131,2028.535Zm2.061-3.028c-.947.016-7.281,1.1-7.58,1.1.15.642,1.918,2.116,2.354,2.664l1.85,1.915c1.355,1.339,1.137,1.375.959,2.424-.18,1.069-1.064,5.863-1.064,6.548.582-.308,1.168-.5,1.74-.853l5.3-2.718a9.348,9.348,0,0,1,1.74.814c.566.328,1.162.616,1.762.916.75.375,2.988,1.658,3.68,1.673l-1.336-7.7c.086-.058,5.291-5.061,5.436-5.6a29.906,29.906,0,0,0-3.707-.644l-3.9-.527-3.68-7.194Z" transform="translate(-16905.309 -2012.223)" fill="#fff" fill-rule="evenodd"/>
    <path id="Path_4395" data-name="Path 4395" d="M3796.04,11863.737h10.289v-2.679H3796.04Z" transform="translate(-3784.555 -11825.173)" fill="#fff" fill-rule="evenodd"/>
    <path id="Path_4396" data-name="Path 4396" d="M22845.7,13577.895h2.682v-2.594h-2.682Z" transform="translate(-22776.58 -13534.229)" fill="#fff" fill-rule="evenodd"/>
    <path id="Path_4397" data-name="Path 4397" d="M22845.7,15264.395h2.682v-2.594h-2.682Z" transform="translate(-22776.58 -15215.627)" fill="#fff" fill-rule="evenodd"/>
    <path id="Path_4398" data-name="Path 4398" d="M22845.7,20351.693h2.682v-2.594h-2.682Z" transform="translate(-22776.58 -20287.533)" fill="#fff" fill-rule="evenodd"/>
    <path id="Path_4399" data-name="Path 4399" d="M22864.174,11892.518h2.512V11890h-2.516Z" transform="translate(-22794.994 -11854.026)" fill="#fff" fill-rule="evenodd"/>
    <path id="Path_4400" data-name="Path 4400" d="M22863.961,16970.4h2.508v-2.516h-2.518Z" transform="translate(-22794.777 -16916.547)" fill="#fff" fill-rule="evenodd"/>
    <path id="Path_4401" data-name="Path 4401" d="M22864.174,18667.018h2.512v-2.518h-2.516Z" transform="translate(-22794.994 -18608.031)" fill="#fff" fill-rule="evenodd"/>
    <path id="Path_4402" data-name="Path 4402" d="M22845.771,18634.992h2.518v2.518h-2.514Zm-.053,2.586h2.678v-2.676h-2.678Z" transform="translate(-22776.6 -18578.521)" fill="#fff" fill-rule="evenodd"/>
    <path id="Path_4403" data-name="Path 4403" d="M22845.771,16948.381h2.518v2.518h-2.506Zm-.053,2.617h2.678v-2.678h-2.678Z" transform="translate(-22776.6 -16897.043)" fill="#fff" fill-rule="evenodd"/>
    <path id="Path_4404" data-name="Path 4404" d="M22845.771,11861.236h2.518v2.516h-2.514Zm-.053,2.588h2.678v-2.676h-2.678Z" transform="translate(-22776.6 -11825.263)" fill="#fff" fill-rule="evenodd"/>
  </g>
</svg>
