<svg id="printer" xmlns="http://www.w3.org/2000/svg" width="83.115" height="82.82" viewBox="0 0 83.115 82.82">
  <path id="Path_4347" data-name="Path 4347" d="M78.979,48.39V44.954a5.549,5.549,0,0,0-2.613-4.705V36.7A4.876,4.876,0,0,0,71.5,31.828h-.517A4.878,4.878,0,0,0,66.164,27.7H65.14V3.277A2.37,2.37,0,0,0,62.772.909H20.225a2.37,2.37,0,0,0-2.368,2.368v11.1a1.216,1.216,0,1,0,2.431,0V3.34h42.42V39.406H20.289V19.558a1.216,1.216,0,1,0-2.431,0V27.7H16.833a4.878,4.878,0,0,0-4.815,4.131H11.5A4.876,4.876,0,0,0,6.631,36.7v3.551a5.549,5.549,0,0,0-2.613,4.705v3.457A5,5,0,0,0,0,53.3V75.856s0,0,0,0,0,0,0,0v2.363a5.509,5.509,0,0,0,5.5,5.5h5.952a2.141,2.141,0,0,0,2.06-1.527l.176-.578H69.425l.176.578a2.141,2.141,0,0,0,2.06,1.527h5.952a5.509,5.509,0,0,0,5.5-5.5V53.3A5,5,0,0,0,78.979,48.39ZM73.935,36.7V39.43c-.166-.015-.334-.024-.5-.024h-2.4V34.259H71.5A2.442,2.442,0,0,1,73.935,36.7ZM65.14,30.128h1.024A2.442,2.442,0,0,1,68.6,32.567v6.839H65.14ZM14.394,32.567a2.442,2.442,0,0,1,2.439-2.439h1.024v9.278H14.394ZM9.062,36.7A2.442,2.442,0,0,1,11.5,34.259h.461v5.146h-2.4c-.17,0-.338.009-.5.024V36.7Zm.5,5.139H73.431a3.121,3.121,0,0,1,3.117,3.117v3.361h-3.18a3.477,3.477,0,0,0-1.747.472l-12.1,7.046a.752.752,0,0,1-.378.1H23.975a.752.752,0,0,1-.378-.1L11.5,48.787a3.476,3.476,0,0,0-1.747-.472H6.45V44.954a3.121,3.121,0,0,1,3.117-3.117ZM11.249,81.3H5.5a3.075,3.075,0,0,1-3.072-3.072v-1.15H12.545c-.053.146-.1.293-.149.443Zm3.18-2.106.294-.967a6.463,6.463,0,0,1,.754-1.63,1.232,1.232,0,0,0,.081-.12,6.349,6.349,0,0,1,5.28-2.784h3.9a1.216,1.216,0,1,0,0-2.431h-3.9a8.77,8.77,0,0,0-6.957,3.384H2.432V53.3a2.559,2.559,0,0,1,2.556-2.556h4.76a1.042,1.042,0,0,1,.523.141l12.1,7.047a3.188,3.188,0,0,0,1.6.432H59.141a3.189,3.189,0,0,0,1.6-.432l12.1-7.046a1.043,1.043,0,0,1,.524-.141h4.76A2.559,2.559,0,0,1,80.683,53.3v21.34H69.235a8.77,8.77,0,0,0-6.957-3.384H29.922a1.216,1.216,0,1,0,0,2.431H62.279a6.354,6.354,0,0,1,6.115,4.534l.294.967ZM77.612,81.3H71.867L70.72,77.518c-.046-.15-.1-.3-.149-.443H80.684v1.15A3.075,3.075,0,0,1,77.612,81.3Z" transform="translate(-0.001 -0.909)" fill="#fff"/>
  <path id="Path_4348" data-name="Path 4348" d="M147.605,279.013h22.9a1.216,1.216,0,1,0,0-2.431h-22.9a.051.051,0,0,1-.051-.051v-3.115a.051.051,0,0,1,.051-.051h30.939a.051.051,0,0,1,.051.051v3.115a.051.051,0,0,1-.051.051h-2.858a1.216,1.216,0,0,0,0,2.431h2.858a2.485,2.485,0,0,0,2.482-2.482v-3.115a2.485,2.485,0,0,0-2.482-2.482H147.605a2.485,2.485,0,0,0-2.482,2.482v3.115a2.485,2.485,0,0,0,2.482,2.482Z" transform="translate(-121.599 -227.162)" fill="#fff"/>
  <path id="Path_4349" data-name="Path 4349" d="M37.786,377.411H36.569a1.216,1.216,0,1,0,0,2.431h1.217a1.216,1.216,0,1,0,0-2.431Z" transform="translate(-29.622 -316.38)" fill="#fff"/>
  <path id="Path_4350" data-name="Path 4350" d="M80.691,377.411H79.474a1.216,1.216,0,1,0,0,2.431h1.217a1.216,1.216,0,1,0,0-2.431Z" transform="translate(-65.573 -316.38)" fill="#fff"/>
</svg>
