<svg id="shout" xmlns="http://www.w3.org/2000/svg" width="88.517" height="83.761" viewBox="0 0 88.517 83.761">
  <path id="Path_4308" data-name="Path 4308" d="M124.557,292.8a1.729,1.729,0,1,0-2.362-.633A1.73,1.73,0,0,0,124.557,292.8Zm0,0" transform="translate(-100.878 -239.512)" fill="#00b1ff"/>
  <path id="Path_4309" data-name="Path 4309" d="M16.594,83.712,25.3,98.793a6.915,6.915,0,1,0,11.978-6.915l-5.187-8.985L36.583,80.3a1.729,1.729,0,0,0,.633-2.362l-2.248-3.894,33.114-6.5a5.186,5.186,0,0,0,4.2-7.771L66.54,49.827l3.672-5.561a1.73,1.73,0,0,0,.055-1.817l-3.458-5.989a1.732,1.732,0,0,0-1.6-.861l-6.651.4L52.178,24.949a5.141,5.141,0,0,0-4.427-2.593h-.066a5.141,5.141,0,0,0-4.367,2.391L20.734,53.517,6.052,61.994A12.1,12.1,0,0,0,16.594,83.712Zm17.69,9.9a3.458,3.458,0,0,1-5.99,3.457L19.651,82.091l5.989-3.458,8.645,14.975ZM30.363,79.9,28.634,76.9l2.994-1.729,1.729,2.994ZM64.349,39.113l2.389,4.138-2.131,3.227-4.118-7.134ZM46.21,26.643a1.728,1.728,0,0,1,2.973.034l20.109,34.83A1.728,1.728,0,0,1,67.837,64.1a6.345,6.345,0,0,0-.948.161L45.618,27.417c.446-.574.5-.629.592-.775Zm-2.893,3.706L63.3,64.964,33.14,70.88,23.969,55ZM4.616,76.8A8.638,8.638,0,0,1,7.78,64.989l13.475-7.78L29.9,72.181l-13.475,7.78A8.655,8.655,0,0,1,4.616,76.8Zm0,0" transform="translate(0 -18.491)" fill="#00b1ff"/>
  <path id="Path_4310" data-name="Path 4310" d="M53.626,310.437a1.729,1.729,0,0,0-2.362-.633l-2.994,1.729a1.731,1.731,0,0,1-2.362-.633,1.729,1.729,0,0,0-2.994,1.729,5.193,5.193,0,0,0,7.085,1.9l2.994-1.729a1.729,1.729,0,0,0,.633-2.362Zm0,0" transform="translate(-35.303 -256.052)" fill="#00b1ff"/>
  <path id="Path_4311" data-name="Path 4311" d="M446.8,42.7l-9.634,5.361a1.729,1.729,0,1,0,1.682,3.021l9.633-5.361A1.729,1.729,0,0,0,446.8,42.7Zm0,0" transform="translate(-360.85 -35.137)" fill="#00b1ff"/>
  <path id="Path_4312" data-name="Path 4312" d="M448.92,138.47l-6.68-1.79a1.729,1.729,0,1,0-.895,3.339l6.68,1.79a1.729,1.729,0,1,0,.894-3.34Zm0,0" transform="translate(-363.983 -113.001)" fill="#00b1ff"/>
  <path id="Path_4313" data-name="Path 4313" d="M385.343,1.282l-1.792,6.68a1.729,1.729,0,0,0,3.34.9l1.791-6.68a1.729,1.729,0,1,0-3.34-.9Zm0,0" transform="translate(-317.192 0)" fill="#00b1ff"/>
</svg>
