<svg id="deviantart-site" xmlns="http://www.w3.org/2000/svg" width="83.32" height="83.283" viewBox="0 0 83.32 83.283">
  <path id="Path_4316" data-name="Path 4316" d="M42.776,33.494a1.388,1.388,0,1,1-1.388-1.388A1.388,1.388,0,0,1,42.776,33.494Zm0,0" transform="translate(-33.06 -26.553)" fill="#00b1ff"/>
  <path id="Path_4317" data-name="Path 4317" d="M74.776,33.494a1.388,1.388,0,1,1-1.388-1.388A1.388,1.388,0,0,1,74.776,33.494Zm0,0" transform="translate(-59.507 -26.553)" fill="#00b1ff"/>
  <path id="Path_4318" data-name="Path 4318" d="M106.776,33.494a1.388,1.388,0,1,1-1.388-1.388A1.388,1.388,0,0,1,106.776,33.494Zm0,0" transform="translate(-85.955 -26.553)" fill="#00b1ff"/>
  <path id="Path_4319" data-name="Path 4319" d="M161.388,32.105a1.388,1.388,0,0,0,0,2.776h34.7a1.388,1.388,0,0,0,0-2.776Zm0,0" transform="translate(-132.239 -26.553)" fill="#00b1ff"/>
  <path id="Path_4320" data-name="Path 4320" d="M20.015,68.12H2.776V13.986H63.85a1.388,1.388,0,0,0,0-2.776H2.776V2.881H68.014V20.121a1.388,1.388,0,0,0,2.776,0V1.493A1.388,1.388,0,0,0,69.4.105H1.388A1.388,1.388,0,0,0,0,1.493V69.508A1.388,1.388,0,0,0,1.388,70.9H20.015a1.388,1.388,0,1,0,0-2.776Zm0,0" transform="translate(0 -0.105)" fill="#00b1ff"/>
  <path id="Path_4321" data-name="Path 4321" d="M363.542,357.749l-7.634-7.579,4.47-2.984a1.381,1.381,0,0,0-.417-2.5l-18.641-4.955a1.389,1.389,0,0,0-1.694,1.694l4.886,18.641a1.381,1.381,0,0,0,2.5.417l3.054-4.47,7.634,7.634a1.407,1.407,0,0,0,1.971,0l3.928-3.928a1.388,1.388,0,0,0-.056-1.971Zm-4.914,2.956-7.857-7.856a1.384,1.384,0,0,0-.971-.4h-.139a1.386,1.386,0,0,0-1.013.611l-2.221,3.318-3.512-13.353,13.353,3.511-3.318,2.249a1.373,1.373,0,0,0-.208,2.123l7.856,7.857Zm0,0" transform="translate(-280.662 -280.767)" fill="#00b1ff"/>
  <path id="Path_4322" data-name="Path 4322" d="M137.1,152.335a27.567,27.567,0,0,1-9.106,2.069V141.911a55.319,55.319,0,0,1,6.135.486,1.4,1.4,0,1,0,.389-2.776,58.688,58.688,0,0,0-6.524-.486v-11.1H141.87a49.711,49.711,0,0,1-.638,6.5,1.407,1.407,0,1,0,2.776.458,51.871,51.871,0,0,0,.638-6.954h9.716a27.561,27.561,0,0,1-2,9.106,1.386,1.386,0,1,0,2.568,1.041A30.618,30.618,0,0,0,126.6,96.106h-1a30.633,30.633,0,0,0-18.433,6.94,1.391,1.391,0,1,0,1.763,2.151A28.021,28.021,0,0,1,117,100.561a27.136,27.136,0,0,0-5.358,8.648,54.75,54.75,0,0,1-6.94-2.485,1.388,1.388,0,0,0-1.583.361.11.11,0,0,0-.1.083,30.535,30.535,0,0,0,.083,38.865l.1.11a30.34,30.34,0,0,0,34.937,8.759,1.388,1.388,0,1,0-1.041-2.568Zm-11.882,1.944c-4.428-.708-8.328-4.858-10.841-10.966a53.417,53.417,0,0,1,10.841-1.4Zm0-15.144a55.861,55.861,0,0,0-11.812,1.513,45.562,45.562,0,0,1-2.069-12.617h13.881Zm-26.3-11.1h9.647a48.124,48.124,0,0,0,2.165,13.381,55.923,55.923,0,0,0-6.052,2.151,27.568,27.568,0,0,1-5.761-15.532Zm39.837-18.045a53.573,53.573,0,0,1-10.757,1.388V99.021C132.376,99.756,136.234,103.92,138.747,109.986Zm-13.534,15.269H111.333a45.077,45.077,0,0,1,2.082-12.659,55.8,55.8,0,0,0,11.8,1.555Zm2.776-11.1a55.929,55.929,0,0,0,11.715-1.5,45.064,45.064,0,0,1,2.082,12.6h-13.8Zm26.373,11.1h-9.716a48.064,48.064,0,0,0-2.151-13.367,54.577,54.577,0,0,0,6.135-2.165,27.569,27.569,0,0,1,5.733,15.532ZM146.728,107.5a52.993,52.993,0,0,1-5.177,1.777,26.625,26.625,0,0,0-5.385-8.69,27.919,27.919,0,0,1,10.494,6.912Zm-21.515-8.5v12.368a53.4,53.4,0,0,1-10.841-1.388C116.885,103.865,120.786,99.715,125.213,99.007Zm-16.657,26.248H98.84a27.764,27.764,0,0,1,5.732-15.532,56.205,56.205,0,0,0,6.066,2.151A47.951,47.951,0,0,0,108.557,125.255Zm-2.013,20.529a52.747,52.747,0,0,1,5.095-1.749,27.112,27.112,0,0,0,5.33,8.606,27.647,27.647,0,0,1-10.425-6.857Zm0,0" transform="translate(-79.408 -79.449)" fill="#00b1ff"/>
  <path id="Path_4323" data-name="Path 4323" d="M430.28,143.013a1.387,1.387,0,0,0,1.277.861,1.161,1.161,0,0,0,.527-.111,1.388,1.388,0,0,0,.75-1.8,36.757,36.757,0,0,0-5.775-9.536,1.388,1.388,0,0,0-2.123,1.735,34.329,34.329,0,0,1,5.344,8.856Zm0,0" transform="translate(-351.05 -109.173)" fill="#00b1ff"/>
  <path id="Path_4324" data-name="Path 4324" d="M64.648,131.518A37.479,37.479,0,0,0,56,155.461a1.388,1.388,0,1,0,2.776,0,34.7,34.7,0,0,1,8.009-22.209,1.39,1.39,0,1,0-2.138-1.776Zm0,0" transform="translate(-46.284 -108.268)" fill="#00b1ff"/>
</svg>
