<svg id="target" xmlns="http://www.w3.org/2000/svg" width="86.004" height="86.016" viewBox="0 0 86.004 86.016">
  <g id="Group_9" data-name="Group 9" transform="translate(56.721 65.791)">
    <g id="Group_8" data-name="Group 8">
      <path id="Path_4301" data-name="Path 4301" d="M340.605,392.129a1.683,1.683,0,0,0-2.4-.022l-.016.016a1.683,1.683,0,0,0-.051,2.4,1.682,1.682,0,0,0,2.4.005A1.683,1.683,0,0,0,340.605,392.129Z" transform="translate(-337.662 -391.615)" fill="#00b1ff"/>
    </g>
  </g>
  <g id="Group_11" data-name="Group 11" transform="translate(15.933 32.866)">
    <g id="Group_10" data-name="Group 10">
      <path id="Path_4302" data-name="Path 4302" d="M153.817,196.729a1.68,1.68,0,1,0-3.15,1.167,35.284,35.284,0,0,1-53.155,41.268,1.68,1.68,0,1,0-1.913,2.761,38.65,38.65,0,0,0,58.218-45.2Z" transform="translate(-94.875 -195.633)" fill="#00b1ff"/>
    </g>
  </g>
  <g id="Group_13" data-name="Group 13" transform="translate(0 8.747)">
    <g id="Group_12" data-name="Group 12" transform="translate(0)">
      <path id="Path_4303" data-name="Path 4303" d="M51.68,54.31A38.644,38.644,0,0,0,7.05,112.9,1.68,1.68,0,0,0,9.8,110.969a35.291,35.291,0,0,1,40.751-53.5A1.68,1.68,0,0,0,51.68,54.31Z" transform="translate(-0.036 -52.064)" fill="#00b1ff"/>
    </g>
  </g>
  <g id="Group_15" data-name="Group 15" transform="translate(8.734 0)">
    <g id="Group_14" data-name="Group 14" transform="translate(0 0)">
      <path id="Path_4304" data-name="Path 4304" d="M129.168,13.93a1.68,1.68,0,0,0-1.552-1.037H118.79l.949-.949a1.68,1.68,0,0,0-2.376-2.376l-.961.961V1.679A1.68,1.68,0,0,0,113.535.491L98.727,15.3a1.68,1.68,0,0,0-.492,1.188v5.827a29.567,29.567,0,0,0-16.308-4.833A29.9,29.9,0,1,0,97.408,72.965a1.68,1.68,0,0,0-1.742-2.873,26.543,26.543,0,1,1,2.568-43.651V28.7l-3.061,3.061a20.518,20.518,0,1,0,2.376,2.376l3.073-3.073h2.235A26.554,26.554,0,0,1,104.5,61.348a1.68,1.68,0,1,0,2.855,1.771,29.913,29.913,0,0,0-.373-32.059h5.828A1.68,1.68,0,0,0,114,30.568L128.8,15.76A1.678,1.678,0,0,0,129.168,13.93ZM99.061,47.381a17.153,17.153,0,1,1-6.27-13.239l-3.826,3.826a11.769,11.769,0,1,0,2.376,2.376l3.826-3.826A17.055,17.055,0,0,1,99.061,47.381ZM80.739,48.569a1.68,1.68,0,0,0,2.376,0l5.816-5.816a8.409,8.409,0,1,1-2.376-2.376l-5.816,5.816A1.68,1.68,0,0,0,80.739,48.569Zm20.855-23.231V17.183L113.043,5.735v8.154ZM112.113,27.7h-8.13l11.448-11.448h8.13Z" transform="translate(-52.027 0.001)" fill="#00b1ff"/>
    </g>
  </g>
  <g id="Group_17" data-name="Group 17" transform="translate(10.791 71.798)">
    <g id="Group_16" data-name="Group 16">
      <path id="Path_4305" data-name="Path 4305" d="M67.134,427.861a1.678,1.678,0,1,0,.492,1.188A1.692,1.692,0,0,0,67.134,427.861Z" transform="translate(-64.267 -427.369)" fill="#00b1ff"/>
    </g>
  </g>
</svg>
