<svg xmlns="http://www.w3.org/2000/svg" xml:space="preserve" version="1.1" style="shape-rendering:geometricPrecision; text-rendering:geometricPrecision; image-rendering:optimizeQuality; fill-rule:evenodd; clip-rule:evenodd"
viewBox="0 0 44558779 10242025"
 xmlns:xlink="http://www.w3.org/1999/xlink">
 <defs>
  <style type="text/css">
   <![CDATA[
    .fil2 {fill:#008DD2}
    .fil1 {fill:#00AFEE}
    .fil0 {fill:#fff}
   ]]>
  </style>
 </defs>
 <g id="Слой_x0020_1">
  <metadata id="CorelCorpID_0Corel-Layer"/>
  <g id="_825499872">
   <path class="fil0" d="M24114912 6198199c0,-1762403 1397585,-1640048 1790474,-1070398 330725,479449 336679,1638279 -3368,2112624 -395169,551106 -1787106,725825 -1787106,-1042226zm-1240524 148792c0,359068 42089,700647 118544,972610 245832,874482 1016502,1333550 1940729,1333550 640013,0 1072474,-25723 1617897,-366758 564819,-353113 863152,-1122185 863152,-1914597 0,-964955 -102825,-2061485 -1033039,-2513543 -632256,-307248 -1565840,-302961 -2074312,275706 -57707,65668 -132222,185131 -192447,229227 0,-413304 -238,-826608 0,-1239878 171,-300646 -13644,-768731 -496223,-768731l-744301 0 0 3992414z"/>
   <path class="fil0" d="M39174905 7661248c-304117,0 -636135,32154 -721096,-445900 -131371,-739061 754645,-747976 1307554,-926948 115958,-37564 244743,-105716 356346,-115005 0,442225 23171,779313 -159374,1055801 -164342,248963 -459511,432052 -783430,432052zm-1811161 -2653352l1240524 0c96325,-413202 859511,-388092 1194659,-276489 425723,141715 512317,728616 -502076,819905 -1019123,91732 -2081968,356074 -2081968,1638789 0,892822 714938,1487854 1563050,1487854 754338,0 1522763,-90949 2003675,-576319 466894,-471180 551821,-991051 551821,-1705036l0 -1190303c0,-1086323 -595849,-1387752 -1480845,-1520450 -120925,-18135 -283395,-4423 -422831,-23784 -183736,-25587 -563287,1600 -765396,42055 -229568,45969 -469956,127391 -636169,232086 -184247,116060 -317966,251140 -436884,431236 -86288,130724 -211568,448247 -227560,640456z"/>
   <path class="fil0" d="M29796507 7661248c-239197,0 -425655,22049 -590575,-153623 -273631,-291426 -229772,-880402 506022,-1046785 280232,-63389 498810,-109902 764070,-203437 101361,-35727 151650,-74719 263321,-84008 0,489316 37156,730725 -158693,1056482 -131950,219530 -448350,431371 -784145,431371zm4559 1016707l-387206 0c-302178,-17999 -592617,-80844 -824975,-206465 -916945,-495883 -884893,-1706363 -472474,-2216673 21300,-26370 34706,-37768 59408,-64648l60089 -63899c413848,-398231 894556,-453590 1436509,-548078 348962,-60871 1042090,-43076 1042090,-520687 0,-491018 -1370331,-556993 -1488636,-49609l-1240525 0c99354,-426200 218306,-773121 606397,-1030555 175570,-116468 339878,-184825 574175,-244471l705887 -89929 753964 64988c253181,47465 427390,92277 626914,191766 359034,179041 677544,546853 677544,934638l0 2033380c0,722525 -435284,1276727 -966996,1538075 -87139,42837 -250596,107145 -357843,138312 -234196,68084 -515652,117795 -804322,133855z"/>
   <path class="fil0" d="M32649723 3792822c0,705989 81355,967575 868391,967098 521028,-272 1042022,0 1563050,0 -45152,67404 -96700,105512 -148861,173597l-1457094 1618544c-60633,62981 -117625,107894 -173086,174209l-489181 552569c-386288,500000 -312079,19190 -312079,1299933l4217797 0c0,-1199661 79959,-1071147 -247669,-1066758l-2382240 442c48554,-72474 96155,-101123 154883,-167574l357094 -387002c4695,-5479 18033,-21402 22661,-26948l703573 -759851c19564,-23205 23409,-28513 46070,-53147 55359,-60225 102211,-103301 161041,-161416l489895 -527050c139979,-183328 620279,-584383 620279,-743927l0 -892719c0,-57128 -17285,-74379 -74447,-74379l-3845629 0c-57163,0 -74448,17251 -74448,74379z"/>
   <path class="fil0" d="M14389186 3048895l0 421572 1860769 0 0 5108305 1265329 0 0 -5108305 1786391 0c57162,0 74413,-17250 74413,-74379l0 -1041511 -4391462 0c-328547,0 -595440,352739 -595440,694318z"/>
   <path class="fil0" d="M12503578 2924908l0 5653864 1290133 0 0 -6224195 -769106 0c-305002,0 -521027,259681 -521027,570331z"/>
   <path class="fil0" d="M41879261 6371796l0 2206976 1265329 0 0 -2628549c0,-557434 358115,-942327 942804,-942327l471385 0 0 -1289453c-609902,0 -1159613,66485 -1654237,330419 -844675,450663 -1025281,1407418 -1025281,2322934z"/>
  </g>
  <g id="_825498016">
   <path class="fil1" d="M1448929 0l7382854 0c796938,0 1448929,651991 1448929,1448929l0 7344167c0,796938 -651991,1448929 -1448929,1448929l-7382854 0c-796938,0 -1448929,-651991 -1448929,-1448929l0 -7344167c0,-796938 651991,-1448929 1448929,-1448929zm3488569 5486800c0,-155189 23171,-175195 177475,-175195l924226 0c1386697,0 1580641,1474311 982308,2033583 -379449,354679 -841818,507724 -1359987,271623 -882886,-402279 -724022,-1159340 -724022,-2130011zm-3436068 971079l35182 2084111 1468561 -306 21538 -1681151c0,-473358 -66655,-1244845 403675,-1343246 14801,1281525 -149643,2190814 965941,3079892 1318204,1061484 3192992,799320 4085473,-668969 270704,-445356 434468,-1020143 377203,-1660770 -200817,-2246683 -2126132,-2477476 -3916163,-2477476 0,-910752 0,-1821505 34,-2732257l-1473393 -5444 -35965 2556483c-4423,318306 -89418,225927 -394216,347873 -316604,126642 -641749,330419 -862504,559341 -533379,553113 -675639,1207996 -675366,1941919zm870806 -3982478c405581,0 734332,325144 734332,726267 0,401123 -328751,726268 -734332,726268 -405546,0 -734331,-325145 -734331,-726268 0,-401123 328785,-726267 734331,-726267z"/>
   <path class="fil2" d="M4937498 5486800c0,-155189 23171,-175195 177475,-175195l924226 0c1386697,0 1580641,1474311 982308,2033583 -379449,354679 -841818,507724 -1359987,271623 -882886,-402279 -724022,-1159340 -724022,-2130011zm5343214 -1390439l0 4750393c0,767404 -652025,1395271 -1448929,1395271l-7382854 0c-796870,0 -1448929,-627867 -1448929,-1395271l0 -2009460c533447,-629296 1095849,-1137326 1682444,-1543927 -135761,360191 -181184,749711 -181014,1164512l35182 2084111 1468561 -306 21538 -1681151c0,-473358 -66655,-1244845 403675,-1343246 14801,1281525 -149643,2190814 965941,3079892 1318204,1061484 3192992,799320 4085473,-668969 270704,-445356 434468,-1020143 377203,-1660770 -155019,-1734162 -1337530,-2267166 -2692175,-2420144 1332733,-78428 2716231,55700 4113884,249065z"/>
  </g>
 </g>
</svg>
